<svg xmlns="http://www.w3.org/2000/svg" xmlns:xlink="http://www.w3.org/1999/xlink" viewBox="0 0 205.64 161.6"><defs><style>.cls-1{fill:none;}.cls-2{clip-path:url(#clip-path);}.cls-3{fill:#69c977;}.cls-10,.cls-11,.cls-15,.cls-17,.cls-18,.cls-20,.cls-22,.cls-23,.cls-25,.cls-27,.cls-28,.cls-29,.cls-3,.cls-30,.cls-31,.cls-33,.cls-34,.cls-35,.cls-36,.cls-37,.cls-39,.cls-4,.cls-40,.cls-41,.cls-43,.cls-44,.cls-46,.cls-47,.cls-50,.cls-51,.cls-53,.cls-54,.cls-55,.cls-56,.cls-57,.cls-59,.cls-60,.cls-7,.cls-8,.cls-9{fill-rule:evenodd;}.cls-4{fill:#572222;}.cls-5,.cls-9{fill:#fff;}.cls-6{fill:#ebc1ab;}.cls-7{fill:#f2d5c8;}.cls-8{fill:#ecceb6;}.cls-10{fill:#f1d3bc;}.cls-11{fill:#e3ada0;}.cls-12{fill:#3a5f4d;}.cls-13{fill:#538663;}.cls-14{fill:#020127;}.cls-15{fill:#e87cda;}.cls-16{fill:#6c4178;}.cls-17{fill:#83a88f;}.cls-18,.cls-19{fill:#9e5ba1;}.cls-20{fill:#f28de1;}.cls-21,.cls-23{fill:#f0a794;}.cls-22,.cls-48{fill:#150015;}.cls-24,.cls-31{fill:#d6835c;}.cls-25{fill:#340026;}.cls-26,.cls-27{fill:#b13e28;}.cls-28{fill:#c05c40;}.cls-29{fill:#580500;}.cls-30{fill:#320030;}.cls-32,.cls-33{fill:#f4a97b;}.cls-34{fill:#6e636c;}.cls-35{fill:#847a84;}.cls-36{fill:#595759;}.cls-37{fill:#aea8af;}.cls-38,.cls-40{fill:#f2c6a0;}.cls-39{fill:#e0ad89;}.cls-41{fill:#cc6e4f;}.cls-42{fill:#d28d71;}.cls-43{fill:#fdf0e5;}.cls-44{fill:#401310;}.cls-45,.cls-47{fill:#90584e;}.cls-46{fill:#5f322e;}.cls-49{fill:#320300;}.cls-50{fill:#1a001a;}.cls-51{fill:#060000;}.cls-52{fill:#370b0a;}.cls-53{fill:#57c957;}.cls-54{fill:#2ea52d;}.cls-55{fill:#77c777;}.cls-56{fill:#55c05b;}.cls-57{fill:#df37e7;}.cls-58,.cls-59{fill:#7c0500;}.cls-60{fill:#871911;}</style><clipPath id="clip-path" transform="translate(11.02 29.87)"><rect id="SVGID" class="cls-1" width="183.64" height="122.42"/></clipPath></defs><g id="Layer_2" data-name="Layer 2"><g id="OBJECTS"><g class="cls-2"><path class="cls-3" d="M10.62,90.89a.65.65,0,0,1,0-.2.63.63,0,0,1,.16-.24l5.28-5.71a.61.61,0,0,1,.74-.13L43.26,98a.62.62,0,0,1,.27.84l-3.39,6.71h0L37.87,110a.63.63,0,0,1-.84.28L10.62,96.92a.6.6,0,0,1-.34-.6l.13-2Z" transform="translate(11.02 29.87)"/><path class="cls-3" d="M10.29,124.28a.3.3,0,0,1,0-.13.39.39,0,0,1,0-.18l1.94-4.65a.4.4,0,0,1,.42-.25l19,2.23a.4.4,0,0,1,.36.44l-.57,4.84h0l-.38,3.24a.39.39,0,0,1-.44.35l-19-2.22a.41.41,0,0,1-.34-.29l-.37-1.26Z" transform="translate(11.02 29.87)"/><path class="cls-3" d="M140,51.48l.13,0a.31.31,0,0,1,.16.11L144,55.52A.42.42,0,0,1,144,56L133.7,73.66a.44.44,0,0,1-.59.15l-4.48-2.62h0l-3-1.76a.43.43,0,0,1-.16-.59l10.33-17.62a.42.42,0,0,1,.42-.21l1.39.18Z" transform="translate(11.02 29.87)"/><path class="cls-3" d="M69.48,33.74a1.09,1.09,0,0,1,.23-.14.84.84,0,0,1,.39-.06l10.57.07a.86.86,0,0,1,.82.63L92.29,73a.85.85,0,0,1-.59,1l-9.85,2.74h0l-6.58,1.84a.85.85,0,0,1-1-.59L63.42,39.27a.82.82,0,0,1,.28-.89l2.15-1.72Z" transform="translate(11.02 29.87)"/><path class="cls-3" d="M47.51,51.44a.7.7,0,0,1,.13-.16.72.72,0,0,1,.27-.15l7.64-2.74a.65.65,0,0,1,.75.24l18,25.1a.65.65,0,0,1-.15.91L67.8,79.22h0l-4.27,3.06a.65.65,0,0,1-.91-.15L44.6,57a.67.67,0,0,1,0-.72l1.1-1.81Z" transform="translate(11.02 29.87)"/><path class="cls-3" d="M35.88,66.13A.36.36,0,0,1,36,66a.48.48,0,0,1,.22-.12l6.37-2.28a.54.54,0,0,1,.63.19l15,20.91a.54.54,0,0,1-.13.76l-5.31,3.82h0l-3.55,2.55a.56.56,0,0,1-.76-.13l-15-20.91a.55.55,0,0,1,0-.6l.92-1.51Z" transform="translate(11.02 29.87)"/><path class="cls-3" d="M20.16,78.48,19,77.61a.43.43,0,0,1-.16-.42L19.1,76l-2.18-1.66a.41.41,0,0,1-.16-.41l.15-.74-2.8-2.14a.41.41,0,0,1-.16-.41l.17-.85a.37.37,0,0,1,.18-.26l1-.65a.4.4,0,0,1,.48,0L18.53,71l.89-.6a.42.42,0,0,1,.49,0l2.14,1.64,1.39-.92a.42.42,0,0,1,.49,0L25,72,27,70.71a.4.4,0,0,1,.49,0L52.84,90.06a.43.43,0,0,1,.08.59l-7,9.17a.43.43,0,0,1-.59.08L20,80.56a.4.4,0,0,1-.15-.42Z" transform="translate(11.02 29.87)"/><path class="cls-3" d="M156.18,77.2l-.64-.65L144.15,87.74a.28.28,0,0,1-.39,0l-.45-.46a.27.27,0,0,1,0-.38L154.7,75.7,154,75l-11.14,11a.29.29,0,0,1-.39,0l-.45-.46a.29.29,0,0,1,0-.39l10.87-10.67h-1.55l-11.21,11a.28.28,0,0,1-.39,0l-.7-.72a.27.27,0,0,1,0-.39l10.15-10-1.4-.08-8.34,8.19a.28.28,0,0,1-.39,0l-.45-.46a.28.28,0,0,1,0-.38l7.61-7.47-.32,0-.77-.09L138,81a.27.27,0,0,1-.38,0l-.45-.46a.26.26,0,0,1,0-.38l6.43-6.32-.25,0-.68-.09-6,5.91a.28.28,0,0,1-.39,0l-.45-.46a.27.27,0,0,1,0-.38l5.38-5.29-.35,0-.74-.13-4.92,4.83a.28.28,0,0,1-.39,0l-.45-.46a.28.28,0,0,1,0-.39l4.32-4.24-.26,0-.63-.13-4,3.89a.28.28,0,0,1-.39,0l-.45-.46a.27.27,0,0,1,0-.38l3.39-3.33c-1.71-.37-3.4-.79-5.09-1.24a.28.28,0,0,1-.2-.29l.06-.57a.28.28,0,0,1,.12-.2l0,0-1.43-.37a.26.26,0,0,1-.2-.25l.76-.75a46.81,46.81,0,0,0,10,1.6c.95,0,1.9,0,2.84,0s2.09-.13,3.12-.27l1.13-.18c.81-.14,1.61-.32,2.39-.53a30.33,30.33,0,0,0,7.15-3l7.34-7.2a.26.26,0,0,1,.38,0l.71.72a.27.27,0,0,1,0,.39l-3.5,3.43,3.77,3.84,3.5-3.44a.27.27,0,0,1,.38,0l.71.72a.27.27,0,0,1,0,.38L145,90.37a.27.27,0,0,1-.39,0l-.71-.72a.28.28,0,0,1,0-.39L156.18,77.2Zm1-1,2.71-2.66c-.56.14-1.12.26-1.67.35l-1.68,1.65.64.66Zm-1.47-1.5.53-.53-1,.09.43.44Zm-2.3-2.34.81.82a21.64,21.64,0,0,0,7.6-1.54l3-3-3.77-3.83-7.67,7.52Zm-1.88-.33,2.9-2.84c-.79.34-1.6.64-2.43.92l-3.12,3.06,1.17,0h.26l1.22-1.2Zm-18.31-1.37c1.38.34,2.76.66,4.15,1l.25-.24c-1.47-.17-2.94-.41-4.4-.71Zm14.07,2.41,2.33-2.29-.36.09-1.17.24L146.18,73l.32,0,.78.07Zm-2.63-.26,1.42-1.4-.25,0q-.47.06-.93.09l-1.19,1.17.26,0,.69.09Zm-2.43-.33.88-.86h-1.29l-.69.68.35.06.75.11Zm-2.55-.42.49-.48h-.26l-.74-.06-.39.38.26,0Z" transform="translate(11.02 29.87)"/><path class="cls-3" d="M59.55,36.29a19.21,19.21,0,0,1,3.77,30.1,19.54,19.54,0,0,1-3.77,2.93A19.3,19.3,0,0,1,44.19,71.2h0A19.21,19.21,0,1,1,59.55,36.29ZM50,45.64a7.11,7.11,0,0,1,3.74,1.22l5.81-8,.5-.69a17.79,17.79,0,0,0-10-3.26V45.64Zm4.16,1.52a7.23,7.23,0,0,1,2.31,3.19l3.08-1L66.69,47a17.92,17.92,0,0,0-6.22-8.55l-.92,1.26-5.39,7.42Zm2.47,3.68a7,7,0,0,1,0,3.93l2.92.95,7.3,2.37a18.07,18.07,0,0,0,0-10.57l-7.3,2.37-2.92,1Zm-.16,4.42a7.23,7.23,0,0,1-2.31,3.19l5.39,7.42.92,1.26a18,18,0,0,0,6.22-8.55l-7.14-2.32-3.08-1Zm-2.73,3.49A7.08,7.08,0,0,1,50,60V70.7a17.79,17.79,0,0,0,10-3.26l-.5-.7-5.81-8ZM49.48,60a7.08,7.08,0,0,1-3.74-1.22l-1.55,2.12-4.76,6.57a17.79,17.79,0,0,0,10,3.26V60Zm-4.16-1.52A7.23,7.23,0,0,1,43,55.26L32.79,58.58A18,18,0,0,0,39,67.13L44.19,60l1.13-1.55Zm-2.47-3.68a7,7,0,0,1,0-3.93L32.63,47.52a18.07,18.07,0,0,0,0,10.57l10.22-3.32ZM43,50.35a7.23,7.23,0,0,1,2.31-3.19l-1.13-1.55L39,38.48A17.92,17.92,0,0,0,32.79,47L43,50.35Zm2.73-3.49a7.08,7.08,0,0,1,3.74-1.22V34.91a17.79,17.79,0,0,0-10,3.26l4.76,6.56,1.55,2.13ZM54.54,48a6,6,0,0,0-.6-.53l-1,1.42A5,5,0,0,1,54.44,51l1.67-.55A6.77,6.77,0,0,0,54.54,48Zm-1-.84A6.75,6.75,0,0,0,50,46v1.76a5,5,0,0,1,2.48.81l1-1.43Zm-4-1.14A6.75,6.75,0,0,0,46,47.16l1,1.43a5,5,0,0,1,2.48-.81V46Zm-3.94,1.45a6,6,0,0,0-.6.53,6.77,6.77,0,0,0-1.57,2.46l.82.27L45,51a5,5,0,0,1,1.54-2.12l-1-1.42ZM43.21,51a6.75,6.75,0,0,0,0,3.71l1-.33.69-.22a5.11,5.11,0,0,1-.17-1.31,5,5,0,0,1,.17-1.3l-.69-.23-1-.32Zm.16,4.2a6.65,6.65,0,0,0,1.57,2.45,6.09,6.09,0,0,0,.6.54l1-1.42A5.11,5.11,0,0,1,45,54.6l-.85.28-.82.27ZM46,58.44a6.67,6.67,0,0,0,3.52,1.15V57.83A5,5,0,0,1,47,57l-1,1.42Zm4,1.15a6.67,6.67,0,0,0,3.52-1.15l-1-1.42a5,5,0,0,1-2.48.81v1.76Zm3.94-1.45a7.57,7.57,0,0,0,.6-.53,6.77,6.77,0,0,0,1.57-2.46l-1.67-.55a5.11,5.11,0,0,1-1.54,2.12l1,1.42Zm2.33-3.48a6.75,6.75,0,0,0,0-3.71l-1.67.55a5,5,0,0,1,.17,1.3,5.11,5.11,0,0,1-.17,1.31l1.67.55ZM62,33a1.8,1.8,0,0,0-1.42-.68,1.83,1.83,0,0,0-1.42.68s0,0,0,0l-.3,1.63a.09.09,0,0,0,0,.05A1.81,1.81,0,0,0,60.53,36a1.83,1.83,0,0,0,1.74-1.25s0,0,0-.05L62,33a.08.08,0,0,0,0,0Zm-1.54.16h-1l-.26,1.43h1.27V33.15Zm.25,1.43h1.27l-.26-1.43h-1v1.43Zm9.15,6.28a1.84,1.84,0,0,0-2.84,0s0,0,0,0l-.3,1.63a.11.11,0,0,0,0,.05,1.82,1.82,0,0,0,1.73,1.25,1.84,1.84,0,0,0,1.74-1.25v-.05l-.3-1.63s0,0,0,0ZM68.27,41h-1L67,42.46h1.27V41Zm.24,1.43h1.27L69.52,41h-1v1.43Zm4.2,9.19a1.84,1.84,0,0,0-2.84,0s0,0,0,.05l-.3,1.63v.05a1.84,1.84,0,0,0,1.74,1.25A1.82,1.82,0,0,0,73,53.38a.11.11,0,0,0,0-.05l-.3-1.63,0-.05Zm-1.55.17v1.43H69.89l.27-1.43Zm.25,1.43V51.82h1l.26,1.43Zm-1.58,9.18a1.84,1.84,0,0,0-2.84,0s0,0,0,0l-.3,1.63v0a1.83,1.83,0,0,0,3.48,0v0l-.3-1.63s0,0,0,0Zm-1.54.16h-1L67,64h1.27V62.59ZM68.53,64H69.8l-.26-1.44h-1V64Zm-6.59,6.28a1.83,1.83,0,0,0-2.85,0s0,0,0,0L58.78,72a0,0,0,0,0,0,0,1.82,1.82,0,0,0,3.47,0,0,0,0,0,0,0,0L62,70.35s0,0,0,0Zm-1.55.16h-1l-.26,1.43h1.27V70.47Zm.25,1.43h1.27l-.26-1.43h-1V71.9Zm1.58,2.52a.55.55,0,0,1,.58,0,25.45,25.45,0,0,0,8.58-8.59.54.54,0,0,1,.49-.84A25.14,25.14,0,0,0,75,53.29a.53.53,0,0,1,0-1,25.14,25.14,0,0,0-3.14-11.73.55.55,0,0,1-.51-.27.53.53,0,0,1,0-.57,25.45,25.45,0,0,0-8.58-8.59.53.53,0,0,1-.58,0,.54.54,0,0,1-.27-.5,25.11,25.11,0,0,0-11.73-3.14.53.53,0,0,1-1,0,25.11,25.11,0,0,0-11.73,3.14.54.54,0,0,1-.27.5.53.53,0,0,1-.58,0,25.45,25.45,0,0,0-8.58,8.59.54.54,0,0,1-.49.84,25.14,25.14,0,0,0-3.14,11.73.53.53,0,0,1,0,1A25.14,25.14,0,0,0,27.61,65a.54.54,0,0,1,.49.84,25.45,25.45,0,0,0,8.58,8.59.55.55,0,0,1,.58,0,.57.57,0,0,1,.27.51,25.11,25.11,0,0,0,11.73,3.14.53.53,0,0,1,1,0A25.11,25.11,0,0,0,62,74.93a.57.57,0,0,1,.27-.51Zm0,.9a.53.53,0,0,0,.85-.5,25.79,25.79,0,0,0,8.74-8.73.53.53,0,0,0,.53-.27.55.55,0,0,0,0-.59A25.6,25.6,0,0,0,75.45,53.3a.54.54,0,0,0,0-1,25.53,25.53,0,0,0-3.19-11.93.56.56,0,0,0,0-.6.53.53,0,0,0-.53-.26A25.79,25.79,0,0,0,63,30.79a.54.54,0,0,0-.26-.54.53.53,0,0,0-.59,0A25.6,25.6,0,0,0,50.24,27.1a.54.54,0,0,0-1,0,25.6,25.6,0,0,0-11.93,3.19.53.53,0,0,0-.59,0,.57.57,0,0,0-.27.54,25.94,25.94,0,0,0-8.73,8.73.53.53,0,0,0-.53.26.56.56,0,0,0,0,.6A25.53,25.53,0,0,0,24,52.31a.54.54,0,0,0,0,1,25.6,25.6,0,0,0,3.19,11.93.55.55,0,0,0,0,.59.53.53,0,0,0,.53.27,25.85,25.85,0,0,0,8.73,8.73.55.55,0,0,0,.27.53.51.51,0,0,0,.59,0,25.6,25.6,0,0,0,11.93,3.19.54.54,0,0,0,1,0,25.6,25.6,0,0,0,11.93-3.19ZM37.53,33l0,0-.3,1.63s0,0,0,.05a1.83,1.83,0,0,0,3.47,0,.09.09,0,0,0,0-.05L40.39,33s0,0,0,0A1.83,1.83,0,0,0,39,32.31a1.8,1.8,0,0,0-1.42.68Zm1.54.16v1.43h1.27l-.26-1.43Zm-.25,1.43V33.15h-1l-.26,1.43Zm-9.15,6.28s0,0,0,0l-.3,1.63v.05a1.84,1.84,0,0,0,1.74,1.25,1.82,1.82,0,0,0,1.73-1.25.11.11,0,0,0,0-.05l-.3-1.63s0,0,0,0a1.84,1.84,0,0,0-2.84,0Zm1.54.17v1.43h1.27L32.22,41ZM31,42.46V41H30l-.27,1.43Zm-4.2,9.19a1.84,1.84,0,0,1,2.84,0s0,0,0,.05l.3,1.63v.05a1.84,1.84,0,0,1-1.74,1.25,1.82,1.82,0,0,1-1.73-1.25.11.11,0,0,1,0-.05l.3-1.63s0,0,0-.05Zm1.55.17h1l.27,1.43H28.32V51.82Zm-.25,1.43H26.8l.26-1.43h1v1.43Zm1.58,9.18s0,0,0,0l-.3,1.63v0a1.83,1.83,0,0,0,3.48,0v0l-.3-1.63s0,0,0,0a1.84,1.84,0,0,0-2.84,0Zm1.54.16V64h1.27l-.26-1.44ZM31,64V62.59h-1L29.68,64Zm6.59,6.28s0,0,0,0L37.23,72a0,0,0,0,0,0,0,1.82,1.82,0,0,0,3.47,0,0,0,0,0,0,0,0l-.29-1.63s0,0,0,0a1.83,1.83,0,0,0-2.85,0Zm1.55.16V71.9h1.27l-.26-1.43Zm-.25,1.43V70.47h-1l-.26,1.43Zm9.48,1.3a1.82,1.82,0,0,1,2.84,0s0,0,0,0l.3,1.62v0a1.83,1.83,0,0,1-3.48,0v0l.3-1.62s0,0,0,0Zm1.54.16h1l.26,1.43H49.86V73.36Zm-.24,1.43H48.35l.26-1.43h1v1.43Zm-1.3-44.68a1.82,1.82,0,0,1,2.84,0,.05.05,0,0,1,0,0l.3,1.63v0a1.84,1.84,0,0,1-3.48,0v0l.3-1.63a.05.05,0,0,1,0,0Zm1.54.16h1l.26,1.43H49.86V30.27Zm-.24,1.43H48.35l.26-1.43h1V31.7ZM50,71v.58a18.71,18.71,0,0,0,9.55-2.76c.35-.22.69-.44,1-.68l-.33-.46A18.12,18.12,0,0,1,50,71Zm10.65-3.62.34.46a18.86,18.86,0,0,0,6.54-9L67,58.68a18.24,18.24,0,0,1-6.33,8.71Zm6.49-9.2.55.17a19,19,0,0,0,0-11.12l-.55.18a18.31,18.31,0,0,1,0,10.77ZM67,46.93l.55-.18a18.88,18.88,0,0,0-6.54-9l-.34.46A18.19,18.19,0,0,1,67,46.93Zm-6.74-9,.33-.46c-.33-.24-.67-.47-1-.68A18.71,18.71,0,0,0,50,34v.58a18.12,18.12,0,0,1,10.24,3.32ZM49.48,34.6V34a19.24,19.24,0,0,0-5.29.83,18.59,18.59,0,0,0-5.28,2.61l.33.46A18.12,18.12,0,0,1,49.48,34.6ZM38.83,38.22l-.34-.46a18.88,18.88,0,0,0-6.54,9l.55.18a18.19,18.19,0,0,1,6.33-8.71Zm-6.49,9.2-.55-.18a19,19,0,0,0,0,11.12l.55-.17a18.31,18.31,0,0,1,0-10.77Zm.16,11.26-.55.17a18.86,18.86,0,0,0,6.54,9l.34-.46a18.24,18.24,0,0,1-6.33-8.71Zm6.74,9-.33.46a18.59,18.59,0,0,0,5.28,2.61,19.24,19.24,0,0,0,5.29.83V71a18.12,18.12,0,0,1-10.24-3.32Zm10.5-38.75a23.87,23.87,0,1,1,0,47.73v.42a24.29,24.29,0,0,0,0-48.57v.42Zm0,0h0v-.42h0a24.29,24.29,0,0,0,0,48.57h0v-.42h0a23.87,23.87,0,1,1,0-47.73Z" transform="translate(11.02 29.87)"/><path class="cls-3" d="M109.23,32.23,111.52,25c0-.09.08-.15.12-.14s.06.09,0,.18L110,32.44a.41.41,0,0,1,.07.45c-.09.37-.86,4.2-1,5s-.09,1.84.35,2.15l.08,0a.28.28,0,0,1,.2.34l-.13.5.23.07a.27.27,0,0,1,.19.34l-.29,1.09.15,0a.58.58,0,0,1,.41.71l-1,3.69a.68.68,0,0,1,.49.84l-1.1,4.1.22.06a.86.86,0,0,1,.61,1.06L103,77.51l.55.14a.51.51,0,0,1,.35.62l-.53,2,.72.2a.5.5,0,0,1,.35.61L104,82.76l.57.15a.9.9,0,0,1,.63,1.09h0a.9.9,0,0,1-1.09.63.56.56,0,0,1-.67.38h0l-.25.94-1.16,4.34-14.59-3.9L88.51,82l.25-.94h0a.56.56,0,0,1-.39-.67.89.89,0,0,1-.63-1.08h0a.9.9,0,0,1,1.09-.63l.57.15.45-1.68a.5.5,0,0,1,.61-.35l.72.19.54-2a.5.5,0,0,1,.61-.35l.55.15,6.58-24.59a.86.86,0,0,1,1.06-.61l.22.06,1.1-4.11a.69.69,0,0,1,.84-.48l1-3.69a.57.57,0,0,1,.7-.41l.15,0,.3-1.09a.28.28,0,0,1,.34-.2l.23.06.13-.5a.28.28,0,0,1,.34-.2l.09,0c.54,0,1.07-.91,1.37-1.69s1.56-4.48,1.66-4.84S109.12,32.25,109.23,32.23Z" transform="translate(11.02 29.87)"/><polygon class="cls-4" points="145.17 98.67 163.33 121 181.5 143.34 165.24 156.57 147.07 134.24 128.9 111.9 145.17 98.67"/><rect class="cls-5" x="118.12" y="73.88" width="16.49" height="4.01" transform="matrix(0.78, -0.63, 0.63, 0.78, -8.53, 126.64)"/><path class="cls-6" d="M132.53,67.14h1.29a.53.53,0,0,1,.53.53V73a.53.53,0,0,1-.53.53h-1.29A.53.53,0,0,1,132,73V67.68A.54.54,0,0,1,132.53,67.14Z" transform="translate(-3.51 129.67) rotate(-39.12)"/><path class="cls-7" d="M132.4,67.53l3.32,4.08-.93.75a.53.53,0,0,1-.75-.08l-3.32-4.08.93-.75A.54.54,0,0,1,132.4,67.53Z" transform="translate(11.02 29.87)"/><path class="cls-7" d="M131.75,73.2l-9.21,7.49a.89.89,0,0,1-1.25-.13l-1.49-1.83,0,0-.56.45,2.53,3.11,11.79-9.59L131,69.54l-.65.53a.1.1,0,0,1,0,.05l1.5,1.83A.89.89,0,0,1,131.75,73.2Z" transform="translate(11.02 29.87)"/><path class="cls-8" d="M130.17,71h0a.21.21,0,0,1,0,.29l-9,7.33a.21.21,0,0,1-.29,0h0a.2.2,0,0,1,0-.28l9-7.34A.2.2,0,0,1,130.17,71Z" transform="translate(11.02 29.87)"/><path class="cls-8" d="M130.79,71.8h0a.19.19,0,0,1,0,.28l-9,7.34a.19.19,0,0,1-.28,0h0a.19.19,0,0,1,0-.28l9-7.34A.21.21,0,0,1,130.79,71.8Z" transform="translate(11.02 29.87)"/><path class="cls-8" d="M131.41,72.56h0a.2.2,0,0,1,0,.28l-9,7.34a.21.21,0,0,1-.29,0h0a.21.21,0,0,1,0-.29l9-7.33A.21.21,0,0,1,131.41,72.56Z" transform="translate(11.02 29.87)"/><path class="cls-9" d="M132.09,68h0a.21.21,0,0,1,0,.29h0a.23.23,0,0,1-.29,0v0a.19.19,0,0,1,0-.28h0A.2.2,0,0,1,132.09,68Z" transform="translate(11.02 29.87)"/><path class="cls-9" d="M132.53,68.54,133.7,70a.2.2,0,0,1,0,.28h0a.19.19,0,0,1-.28,0l-1.17-1.43a.2.2,0,0,1,0-.28h0A.19.19,0,0,1,132.53,68.54Z" transform="translate(11.02 29.87)"/><rect class="cls-6" x="118.37" y="78.22" width="2.36" height="6.42" rx="0.53" transform="translate(-13.56 123.58) rotate(-39.13)"/><path class="cls-7" d="M118.78,78.61l3.32,4.08-.93.75a.53.53,0,0,1-.75-.08l-3.32-4.08.93-.75A.54.54,0,0,1,118.78,78.61Z" transform="translate(11.02 29.87)"/><path class="cls-9" d="M118.47,79.08h0a.23.23,0,0,1,0,.29h0a.22.22,0,0,1-.29,0v0a.19.19,0,0,1,0-.28h0A.2.2,0,0,1,118.47,79.08Z" transform="translate(11.02 29.87)"/><path class="cls-9" d="M118.91,79.62l1.17,1.43a.2.2,0,0,1,0,.28h0a.19.19,0,0,1-.28,0l-1.17-1.43a.2.2,0,0,1,0-.28h0A.19.19,0,0,1,118.91,79.62Z" transform="translate(11.02 29.87)"/><rect class="cls-5" x="123.09" y="80" width="16.49" height="4.01" transform="translate(-11.28 131.12) rotate(-39.12)"/><rect class="cls-6" x="136.97" y="73.26" width="2.36" height="6.42" rx="0.53" transform="translate(-6.25 134.21) rotate(-39.13)"/><path class="cls-7" d="M137.38,73.65l3.32,4.08-.93.75a.53.53,0,0,1-.75-.08l-3.32-4.08.93-.75A.54.54,0,0,1,137.38,73.65Z" transform="translate(11.02 29.87)"/><path class="cls-7" d="M136.72,79.32l-9.2,7.49a.89.89,0,0,1-1.25-.13l-1.5-1.83a.1.1,0,0,0,0,0l-.55.45,2.53,3.11,11.79-9.59L136,75.66l-.65.53,0,0,1.49,1.83A.89.89,0,0,1,136.72,79.32Z" transform="translate(11.02 29.87)"/><path class="cls-8" d="M135.15,77.16h0a.21.21,0,0,1,0,.29l-9,7.33a.2.2,0,0,1-.28,0h0a.2.2,0,0,1,0-.28l9-7.34A.21.21,0,0,1,135.15,77.16Z" transform="translate(11.02 29.87)"/><path class="cls-8" d="M135.77,77.92h0a.2.2,0,0,1,0,.28l-9,7.34a.21.21,0,0,1-.29,0h0a.22.22,0,0,1,0-.29l9-7.33A.21.21,0,0,1,135.77,77.92Z" transform="translate(11.02 29.87)"/><path class="cls-8" d="M136.38,78.68h0a.2.2,0,0,1,0,.28l-9,7.34a.21.21,0,0,1-.29,0h0a.21.21,0,0,1,0-.29l9-7.33A.2.2,0,0,1,136.38,78.68Z" transform="translate(11.02 29.87)"/><path class="cls-9" d="M137.07,74.12h0a.19.19,0,0,1,0,.28h0a.2.2,0,0,1-.28,0v0a.19.19,0,0,1,0-.28h0A.2.2,0,0,1,137.07,74.12Z" transform="translate(11.02 29.87)"/><path class="cls-9" d="M137.51,74.66l1.17,1.43a.21.21,0,0,1,0,.28h0a.21.21,0,0,1-.29,0l-1.16-1.43a.2.2,0,0,1,0-.28h0A.19.19,0,0,1,137.51,74.66Z" transform="translate(11.02 29.87)"/><path class="cls-6" d="M123.88,84.34h1.29a.53.53,0,0,1,.53.53v5.35a.54.54,0,0,1-.54.54h-1.29a.53.53,0,0,1-.53-.53V84.87A.54.54,0,0,1,123.88,84.34Z" transform="translate(-16.3 128.07) rotate(-39.12)"/><path class="cls-7" d="M123.76,84.73l3.32,4.08-.93.75a.53.53,0,0,1-.75-.08l-3.32-4.08.93-.75A.54.54,0,0,1,123.76,84.73Z" transform="translate(11.02 29.87)"/><path class="cls-9" d="M123.45,85.19v0a.19.19,0,0,1,0,.28h0a.2.2,0,0,1-.28,0v0a.19.19,0,0,1,0-.28h0A.2.2,0,0,1,123.45,85.19Z" transform="translate(11.02 29.87)"/><path class="cls-9" d="M123.89,85.74l1.16,1.43a.2.2,0,0,1,0,.28h0a.21.21,0,0,1-.29,0L123.58,86a.2.2,0,0,1,0-.28h0A.2.2,0,0,1,123.89,85.74Z" transform="translate(11.02 29.87)"/><rect class="cls-5" x="128.07" y="86.12" width="16.49" height="4.01" transform="translate(-14.02 135.65) rotate(-39.13)"/><rect class="cls-6" x="141.95" y="79.38" width="2.36" height="6.42" rx="0.53" transform="translate(-9 138.7) rotate(-39.13)"/><path class="cls-7" d="M142.36,79.77l3.31,4.08-.92.75a.54.54,0,0,1-.75-.08l-3.32-4.08.92-.75A.54.54,0,0,1,142.36,79.77Z" transform="translate(11.02 29.87)"/><path class="cls-7" d="M141.7,85.44l-9.2,7.49a.9.9,0,0,1-1.26-.13L129.75,91l0-.06-.55.46,2.53,3.11,11.79-9.59L141,81.78l-.65.52,0,0,1.49,1.84A.89.89,0,0,1,141.7,85.44Z" transform="translate(11.02 29.87)"/><path class="cls-8" d="M140.13,83.28h0a.19.19,0,0,1,0,.28l-9,7.34a.21.21,0,0,1-.29,0h0a.2.2,0,0,1,0-.28l9-7.34A.21.21,0,0,1,140.13,83.28Z" transform="translate(11.02 29.87)"/><path class="cls-8" d="M140.74,84h0a.19.19,0,0,1,0,.28l-9,7.34a.21.21,0,0,1-.29,0h0a.21.21,0,0,1,0-.29l9-7.33A.2.2,0,0,1,140.74,84Z" transform="translate(11.02 29.87)"/><path class="cls-8" d="M141.36,84.79h0a.21.21,0,0,1,0,.29l-9,7.34a.2.2,0,0,1-.28,0h0a.21.21,0,0,1,0-.29l9-7.34A.22.22,0,0,1,141.36,84.79Z" transform="translate(11.02 29.87)"/><path class="cls-9" d="M142.05,80.23v0a.19.19,0,0,1,0,.28h0a.2.2,0,0,1-.28,0h0a.21.21,0,0,1,0-.29h0A.22.22,0,0,1,142.05,80.23Z" transform="translate(11.02 29.87)"/><path class="cls-9" d="M142.49,80.78l1.16,1.43a.2.2,0,0,1,0,.28h0a.2.2,0,0,1-.28,0L142.18,81a.2.2,0,0,1,0-.28h0A.2.2,0,0,1,142.49,80.78Z" transform="translate(11.02 29.87)"/><rect class="cls-6" x="128.33" y="90.46" width="2.36" height="6.42" rx="0.53" transform="translate(-19.05 132.6) rotate(-39.13)"/><path class="cls-7" d="M128.74,90.85l3.31,4.08-.92.75a.54.54,0,0,1-.75-.08l-3.32-4.08.92-.75A.54.54,0,0,1,128.74,90.85Z" transform="translate(11.02 29.87)"/><path class="cls-9" d="M128.43,91.31v0a.19.19,0,0,1,0,.28h0a.19.19,0,0,1-.28,0h0a.22.22,0,0,1,0-.29h0A.22.22,0,0,1,128.43,91.31Z" transform="translate(11.02 29.87)"/><path class="cls-9" d="M128.87,91.86,130,93.29a.2.2,0,0,1,0,.28h0a.2.2,0,0,1-.28,0l-1.16-1.43a.2.2,0,0,1,0-.28h0A.2.2,0,0,1,128.87,91.86Z" transform="translate(11.02 29.87)"/><rect class="cls-5" x="133.05" y="92.24" width="16.49" height="4.01" transform="translate(-16.77 140.14) rotate(-39.12)"/><rect class="cls-6" x="146.92" y="85.5" width="2.36" height="6.42" rx="0.53" transform="translate(-11.74 143.24) rotate(-39.13)"/><path class="cls-7" d="M147.33,85.89,150.65,90l-.92.75a.55.55,0,0,1-.76-.08l-3.31-4.08.92-.75A.53.53,0,0,1,147.33,85.89Z" transform="translate(11.02 29.87)"/><path class="cls-7" d="M146.68,91.56l-9.21,7.49a.89.89,0,0,1-1.25-.13l-1.49-1.83,0-.06-.56.46,2.54,3.11L148.45,91l-2.53-3.11-.65.52,0,0,1.49,1.84A.89.89,0,0,1,146.68,91.56Z" transform="translate(11.02 29.87)"/><path class="cls-8" d="M145.11,89.4h0a.2.2,0,0,1,0,.28l-9,7.34a.21.21,0,0,1-.29,0h0a.21.21,0,0,1,0-.29l9-7.33A.21.21,0,0,1,145.11,89.4Z" transform="translate(11.02 29.87)"/><path class="cls-8" d="M145.72,90.16h0a.2.2,0,0,1,0,.28l-9,7.34a.2.2,0,0,1-.28,0h0a.21.21,0,0,1,0-.29l9-7.33A.2.2,0,0,1,145.72,90.16Z" transform="translate(11.02 29.87)"/><path class="cls-8" d="M146.34,90.91h0a.21.21,0,0,1,0,.29l-9,7.34a.22.22,0,0,1-.29,0h0a.22.22,0,0,1,0-.29l9-7.34A.22.22,0,0,1,146.34,90.91Z" transform="translate(11.02 29.87)"/><path class="cls-9" d="M147,86.35l0,0a.2.2,0,0,1,0,.28h0a.19.19,0,0,1-.28,0h0a.22.22,0,0,1,0-.29h0A.2.2,0,0,1,147,86.35Z" transform="translate(11.02 29.87)"/><path class="cls-9" d="M147.47,86.9l1.16,1.43a.2.2,0,0,1,0,.28h0a.2.2,0,0,1-.28,0l-1.16-1.43a.2.2,0,0,1,0-.28h0A.21.21,0,0,1,147.47,86.9Z" transform="translate(11.02 29.87)"/><rect class="cls-6" x="133.3" y="96.58" width="2.36" height="6.42" rx="0.53" transform="translate(-21.79 137.11) rotate(-39.13)"/><path class="cls-7" d="M133.71,97l3.32,4.08-.92.75a.55.55,0,0,1-.76-.08L132,97.64l.92-.75A.53.53,0,0,1,133.71,97Z" transform="translate(11.02 29.87)"/><path class="cls-9" d="M133.4,97.43l0,0a.2.2,0,0,1,0,.28h0a.19.19,0,0,1-.28,0h0a.22.22,0,0,1,0-.29h0A.2.2,0,0,1,133.4,97.43Z" transform="translate(11.02 29.87)"/><path class="cls-9" d="M133.85,98,135,99.41a.2.2,0,0,1,0,.28h0a.19.19,0,0,1-.28,0l-1.17-1.43a.21.21,0,0,1,0-.28h0A.21.21,0,0,1,133.85,98Z" transform="translate(11.02 29.87)"/><path class="cls-9" d="M116.07,78.93l40.84,50.21a.43.43,0,0,1-.06.62l-1,.84a.44.44,0,0,1-.62-.07L114.35,80.32a.44.44,0,0,1,.07-.62l1-.84A.46.46,0,0,1,116.07,78.93Z" transform="translate(11.02 29.87)"/><polygon class="cls-9" points="143.21 95.39 171.73 113.37 183.53 144.95 182.53 144.58 162.51 120.87 143.37 96.44 143.21 95.39"/><polygon class="cls-10" points="181.24 143.06 162.51 120.87 144.6 98.02 170.52 114.36 181.24 143.06"/><polygon class="cls-11" points="169.11 128.15 162.51 120.87 156.73 112.92 170.52 114.36 169.11 128.15"/><rect class="cls-5" x="153.72" y="117.64" width="16.49" height="4.01" transform="translate(-28.17 158.89) rotate(-39.12)"/><rect class="cls-6" x="167.59" y="110.9" width="2.36" height="6.42" rx="0.53" transform="translate(-23.14 161.98) rotate(-39.13)"/><path class="cls-7" d="M171.37,115.44l-3.31-4.08-.93.75a.54.54,0,0,0-.08.75l3.32,4.08.93-.75A.54.54,0,0,0,171.37,115.44Z" transform="translate(11.02 29.87)"/><path class="cls-7" d="M165.69,114.92l-9.21,7.49a.9.9,0,0,0-.13,1.26l1.49,1.83,0,0-.56.45-2.53-3.11,11.79-9.59,2.53,3.11-.65.53,0,0-1.49-1.84A.89.89,0,0,0,165.69,114.92Z" transform="translate(11.02 29.87)"/><path class="cls-8" d="M167.48,116.9h0a.19.19,0,0,0-.28,0l-9,7.33a.21.21,0,0,0,0,.29h0a.2.2,0,0,0,.28,0l9-7.34A.21.21,0,0,0,167.48,116.9Z" transform="translate(11.02 29.87)"/><path class="cls-8" d="M166.87,116.15h0a.21.21,0,0,0-.29,0l-9,7.33a.21.21,0,0,0,0,.29h0a.21.21,0,0,0,.29,0l9-7.34A.2.2,0,0,0,166.87,116.15Z" transform="translate(11.02 29.87)"/><path class="cls-8" d="M166.25,115.39h0a.21.21,0,0,0-.29,0l-9,7.34a.2.2,0,0,0,0,.28h0a.19.19,0,0,0,.28,0l9-7.33A.21.21,0,0,0,166.25,115.39Z" transform="translate(11.02 29.87)"/><path class="cls-9" d="M170.85,115.65v0a.2.2,0,0,0-.28,0h0a.2.2,0,0,0,0,.28v0a.2.2,0,0,0,.28,0h0A.2.2,0,0,0,170.85,115.65Z" transform="translate(11.02 29.87)"/><path class="cls-9" d="M170.41,115.1l-1.16-1.43a.22.22,0,0,0-.29,0h0a.21.21,0,0,0,0,.29l1.16,1.43a.2.2,0,0,0,.28,0h0A.19.19,0,0,0,170.41,115.1Z" transform="translate(11.02 29.87)"/><rect class="cls-6" x="153.97" y="121.98" width="2.36" height="6.42" rx="0.53" transform="translate(-33.19 155.87) rotate(-39.13)"/><path class="cls-7" d="M157.75,126.52l-3.32-4.08-.92.75a.54.54,0,0,0-.08.75l3.32,4.08.93-.75A.54.54,0,0,0,157.75,126.52Z" transform="translate(11.02 29.87)"/><path class="cls-9" d="M157.23,126.73v0a.2.2,0,0,0-.28,0h0a.2.2,0,0,0,0,.28v0a.2.2,0,0,0,.28,0h0A.2.2,0,0,0,157.23,126.73Z" transform="translate(11.02 29.87)"/><path class="cls-9" d="M156.79,126.18l-1.16-1.43a.22.22,0,0,0-.29,0h0a.2.2,0,0,0,0,.28l1.16,1.44a.2.2,0,0,0,.28,0h0A.19.19,0,0,0,156.79,126.18Z" transform="translate(11.02 29.87)"/><rect class="cls-5" x="148.74" y="111.53" width="16.49" height="4.01" transform="translate(-25.42 154.38) rotate(-39.12)"/><path class="cls-6" d="M163.15,104.78h1.29a.53.53,0,0,1,.53.53v5.35a.53.53,0,0,1-.53.53h-1.29a.54.54,0,0,1-.54-.54v-5.35a.53.53,0,0,1,.53-.53Z" transform="translate(-20.4 157.44) rotate(-39.12)"/><path class="cls-7" d="M166.4,109.32l-3.32-4.08-.93.75a.54.54,0,0,0-.08.75l3.32,4.08.93-.75A.54.54,0,0,0,166.4,109.32Z" transform="translate(11.02 29.87)"/><path class="cls-7" d="M160.71,108.8l-9.21,7.49a.9.9,0,0,0-.13,1.26l1.5,1.83,0,.05-.56.45-2.53-3.11,11.79-9.59,2.53,3.11-.65.53a.1.1,0,0,0,0,0L162,108.93A.9.9,0,0,0,160.71,108.8Z" transform="translate(11.02 29.87)"/><path class="cls-8" d="M162.5,110.79h0a.19.19,0,0,0-.28,0l-9,7.33a.21.21,0,0,0,0,.29h0a.21.21,0,0,0,.29,0l9-7.34A.19.19,0,0,0,162.5,110.79Z" transform="translate(11.02 29.87)"/><path class="cls-8" d="M161.89,110h0a.21.21,0,0,0-.29,0l-9,7.33a.22.22,0,0,0,0,.29h0a.21.21,0,0,0,.29,0l9-7.34A.19.19,0,0,0,161.89,110Z" transform="translate(11.02 29.87)"/><path class="cls-8" d="M161.27,109.27h0a.2.2,0,0,0-.28,0l-9,7.34a.2.2,0,0,0,0,.28h0a.2.2,0,0,0,.28,0l9-7.33A.21.21,0,0,0,161.27,109.27Z" transform="translate(11.02 29.87)"/><path class="cls-9" d="M165.88,109.53l0,0a.2.2,0,0,0-.28,0h0a.2.2,0,0,0,0,.28v0a.21.21,0,0,0,.29,0h0A.2.2,0,0,0,165.88,109.53Z" transform="translate(11.02 29.87)"/><path class="cls-9" d="M165.43,109l-1.16-1.43a.2.2,0,0,0-.28,0h0a.21.21,0,0,0,0,.29l1.16,1.43a.2.2,0,0,0,.28,0h0A.21.21,0,0,0,165.43,109Z" transform="translate(11.02 29.87)"/><path class="cls-6" d="M149.53,115.86h1.29a.54.54,0,0,1,.54.54v5.35a.53.53,0,0,1-.53.53h-1.29a.53.53,0,0,1-.53-.53V116.4A.53.53,0,0,1,149.53,115.86Z" transform="translate(-30.44 151.32) rotate(-39.12)"/><path class="cls-7" d="M152.78,120.4l-3.32-4.08-.93.75a.54.54,0,0,0-.08.75l3.32,4.08.93-.75A.54.54,0,0,0,152.78,120.4Z" transform="translate(11.02 29.87)"/><path class="cls-9" d="M152.26,120.61l0,0a.19.19,0,0,0-.28,0h0a.2.2,0,0,0,0,.28v0a.21.21,0,0,0,.29,0h0A.21.21,0,0,0,152.26,120.61Z" transform="translate(11.02 29.87)"/><path class="cls-9" d="M151.81,120.06l-1.16-1.43a.2.2,0,0,0-.28,0h0a.21.21,0,0,0,0,.29l1.16,1.43a.2.2,0,0,0,.28,0h0A.21.21,0,0,0,151.81,120.06Z" transform="translate(11.02 29.87)"/><rect class="cls-5" x="143.76" y="105.41" width="16.49" height="4.01" transform="translate(-22.68 149.87) rotate(-39.12)"/><path class="cls-6" d="M158.17,98.66h1.29a.54.54,0,0,1,.54.54v5.35a.53.53,0,0,1-.53.53h-1.29a.53.53,0,0,1-.53-.53V99.2A.53.53,0,0,1,158.17,98.66Z" transform="translate(-17.65 152.93) rotate(-39.13)"/><path class="cls-7" d="M161.42,103.2l-3.32-4.08-.92.75a.54.54,0,0,0-.08.76l3.32,4.08.92-.76A.54.54,0,0,0,161.42,103.2Z" transform="translate(11.02 29.87)"/><path class="cls-7" d="M155.73,102.69l-9.21,7.49a.9.9,0,0,0-.12,1.25l1.49,1.83,0,0-.55.45-2.54-3.11,11.79-9.59,2.53,3.11-.65.53,0,0-1.5-1.84A.9.9,0,0,0,155.73,102.69Z" transform="translate(11.02 29.87)"/><path class="cls-8" d="M157.53,104.67h0a.21.21,0,0,0-.29,0l-9,7.33a.22.22,0,0,0,0,.29h0a.21.21,0,0,0,.29,0l9-7.34A.2.2,0,0,0,157.53,104.67Z" transform="translate(11.02 29.87)"/><path class="cls-8" d="M156.91,103.91h0a.21.21,0,0,0-.29,0l-9,7.34a.2.2,0,0,0,0,.28h0a.2.2,0,0,0,.28,0l9-7.33A.21.21,0,0,0,156.91,103.91Z" transform="translate(11.02 29.87)"/><path class="cls-8" d="M156.29,103.15h0a.2.2,0,0,0-.28,0l-9,7.34a.2.2,0,0,0,0,.28h0a.21.21,0,0,0,.29,0l9-7.33A.21.21,0,0,0,156.29,103.15Z" transform="translate(11.02 29.87)"/><path class="cls-9" d="M160.9,103.41l0,0a.2.2,0,0,0-.28,0h0a.22.22,0,0,0,0,.29h0a.19.19,0,0,0,.28,0h0A.2.2,0,0,0,160.9,103.41Z" transform="translate(11.02 29.87)"/><path class="cls-9" d="M160.46,102.86l-1.17-1.43a.2.2,0,0,0-.28,0h0a.19.19,0,0,0,0,.28l1.16,1.43a.22.22,0,0,0,.29,0h0A.22.22,0,0,0,160.46,102.86Z" transform="translate(11.02 29.87)"/><rect class="cls-6" x="144.01" y="109.74" width="2.36" height="6.42" rx="0.53" transform="translate(-27.7 146.84) rotate(-39.13)"/><path class="cls-7" d="M147.8,114.28l-3.32-4.08-.93.75a.55.55,0,0,0-.07.76l3.32,4.08.92-.76A.54.54,0,0,0,147.8,114.28Z" transform="translate(11.02 29.87)"/><path class="cls-9" d="M147.28,114.49l0,0a.2.2,0,0,0-.28,0h0a.2.2,0,0,0,0,.28l0,0a.19.19,0,0,0,.28,0h0A.2.2,0,0,0,147.28,114.49Z" transform="translate(11.02 29.87)"/><path class="cls-9" d="M146.84,113.94l-1.17-1.43a.2.2,0,0,0-.28,0h0a.19.19,0,0,0,0,.28l1.16,1.43a.22.22,0,0,0,.29,0h0A.22.22,0,0,0,146.84,113.94Z" transform="translate(11.02 29.87)"/><rect class="cls-5" x="138.78" y="99.29" width="16.49" height="4.01" transform="translate(-19.93 145.38) rotate(-39.13)"/><rect class="cls-6" x="152.66" y="92.54" width="2.36" height="6.42" rx="0.53" transform="translate(-14.91 148.43) rotate(-39.13)"/><path class="cls-7" d="M156.44,97.08,153.12,93l-.92.76a.53.53,0,0,0-.08.75l3.32,4.08.92-.76A.53.53,0,0,0,156.44,97.08Z" transform="translate(11.02 29.87)"/><path class="cls-7" d="M150.75,96.57l-9.2,7.49a.89.89,0,0,0-.13,1.25l1.49,1.83,0,0-.55.45-2.53-3.11,11.79-9.59,2.53,3.11-.65.53,0,0L152,96.7A.9.9,0,0,0,150.75,96.57Z" transform="translate(11.02 29.87)"/><path class="cls-8" d="M152.55,98.55h0a.21.21,0,0,0-.29,0l-9,7.34a.19.19,0,0,0,0,.28h0a.2.2,0,0,0,.28,0l9-7.33A.21.21,0,0,0,152.55,98.55Z" transform="translate(11.02 29.87)"/><path class="cls-8" d="M151.93,97.79h0a.2.2,0,0,0-.28,0l-9,7.34a.2.2,0,0,0,0,.28h0a.21.21,0,0,0,.29,0l9-7.33A.21.21,0,0,0,151.93,97.79Z" transform="translate(11.02 29.87)"/><path class="cls-8" d="M151.32,97h0a.22.22,0,0,0-.29,0l-9,7.34a.22.22,0,0,0,0,.29h0a.22.22,0,0,0,.29,0l9-7.34A.22.22,0,0,0,151.32,97Z" transform="translate(11.02 29.87)"/><path class="cls-9" d="M155.92,97.29v0a.2.2,0,0,0-.28,0h0a.21.21,0,0,0,0,.29h0a.2.2,0,0,0,.28,0h0A.19.19,0,0,0,155.92,97.29Z" transform="translate(11.02 29.87)"/><path class="cls-9" d="M155.48,96.75l-1.17-1.43a.19.19,0,0,0-.28,0h0a.2.2,0,0,0,0,.28L155.17,97a.2.2,0,0,0,.28,0h0A.2.2,0,0,0,155.48,96.75Z" transform="translate(11.02 29.87)"/><rect class="cls-6" x="139.04" y="103.62" width="2.36" height="6.42" rx="0.53" transform="translate(-24.95 142.3) rotate(-39.12)"/><path class="cls-7" d="M142.82,108.16l-3.32-4.08-.92.76a.53.53,0,0,0-.08.75l3.32,4.08.92-.76A.53.53,0,0,0,142.82,108.16Z" transform="translate(11.02 29.87)"/><path class="cls-9" d="M142.3,108.37v0a.22.22,0,0,0-.29,0h0a.21.21,0,0,0,0,.29h0a.2.2,0,0,0,.28,0h0A.19.19,0,0,0,142.3,108.37Z" transform="translate(11.02 29.87)"/><path class="cls-9" d="M141.86,107.83l-1.17-1.43a.19.19,0,0,0-.28,0h0a.2.2,0,0,0,0,.28l1.17,1.43a.2.2,0,0,0,.28,0h0A.2.2,0,0,0,141.86,107.83Z" transform="translate(11.02 29.87)"/><path class="cls-9" d="M132.2,65.52l41.12,50.56a.22.22,0,0,1,0,.31l-.52.42a.22.22,0,0,1-.31,0L131.34,66.22a.21.21,0,0,1,0-.31l.51-.42A.23.23,0,0,1,132.2,65.52Z" transform="translate(11.02 29.87)"/><path class="cls-9" d="M143.64,76.21l3.59,4.42a.63.63,0,0,1-.08.88h0a.62.62,0,0,1-.88-.09L142.67,77a.62.62,0,0,1,.09-.88h0A.62.62,0,0,1,143.64,76.21Z" transform="translate(11.02 29.87)"/><path class="cls-9" d="M142.19,74.43l.08.1a.62.62,0,0,1-.09.88h0a.63.63,0,0,1-.88-.09l-.08-.1a.62.62,0,0,1,.09-.88h0A.62.62,0,0,1,142.19,74.43Z" transform="translate(11.02 29.87)"/><path class="cls-12" d="M121.13,42.08h6.71a.33.33,0,0,1,.33.33V57.65a.32.32,0,0,1-.32.32h-6.71a.32.32,0,0,1-.32-.32V42.4a.32.32,0,0,1,.32-.32Z" transform="matrix(0.39, -0.92, 0.92, 0.39, 40.58, 174.7)"/><rect class="cls-13" x="123.72" y="39.4" width="3.44" height="16.81" rx="0.45" transform="translate(43.2 174.23) rotate(-66.86)"/><rect class="cls-14" x="117.84" y="48.99" width="3.81" height="2.79" rx="0.6" transform="translate(37.36 170.56) rotate(-66.86)"/><rect class="cls-14" x="121.71" y="50.65" width="3.81" height="2.79" rx="0.6" transform="translate(38.16 175.1) rotate(-66.84)"/><rect class="cls-14" x="125.59" y="52.31" width="3.81" height="2.79" rx="0.6" transform="translate(39.03 179.71) rotate(-66.86)"/><path class="cls-15" d="M123.24,52.93l8,3.4a.83.83,0,0,1,.43,1.09l-1.46,3.42a.83.83,0,0,1-1.09.44l-7.95-3.39-7.94-3.4a.83.83,0,0,1-.44-1.09L114.2,50a.85.85,0,0,1,1.1-.44Z" transform="translate(11.02 29.87)"/><path class="cls-15" d="M121.75,56.42,110.4,51.58a.83.83,0,0,0-1.09.43l-1.46,3.42a.84.84,0,0,0,.44,1.1l11.34,4.85L131,66.23a.83.83,0,0,0,1.09-.44l1.46-3.42a.84.84,0,0,0-.44-1.1Z" transform="translate(11.02 29.87)"/><path class="cls-15" d="M120.26,59.92l-14.75-6.31a.83.83,0,0,0-1.09.44L103,57.47a.83.83,0,0,0,.44,1.09l14.75,6.31,14.75,6.3a.83.83,0,0,0,1.09-.44l1.46-3.42a.83.83,0,0,0-.44-1.09Z" transform="translate(11.02 29.87)"/><path class="cls-15" d="M118.77,63.41l18.14,7.75a.85.85,0,0,1,.44,1.1l-1.46,3.42a.82.82,0,0,1-1.09.43l-18.15-7.75L98.5,60.6a.83.83,0,0,1-.44-1.09l1.46-3.42a.85.85,0,0,1,1.1-.44Z" transform="translate(11.02 29.87)"/><path class="cls-15" d="M117.27,66.9,95.72,57.69a.83.83,0,0,0-1.09.44l-1.46,3.42a.83.83,0,0,0,.44,1.09l21.55,9.21L134.32,80l2.8-4.66Z" transform="translate(11.02 29.87)"/><path class="cls-15" d="M115.78,70.39,87,58.09a.83.83,0,0,0-1.09.44L84.46,62A.83.83,0,0,0,84.9,63l28.76,12.3,18.69,8,2.8-4.66Z" transform="translate(11.02 29.87)"/><rect class="cls-14" x="106.27" y="57.58" width="24.37" height="13.11" transform="translate(23.94 177.72) rotate(-66.86)"/><rect class="cls-16" x="101.38" y="61.66" width="24.37" height="0.78" transform="translate(22.85 171.9) rotate(-66.83)"/><rect class="cls-16" x="102.96" y="62.33" width="24.37" height="0.78" transform="translate(23.19 173.76) rotate(-66.83)"/><rect class="cls-16" x="109.58" y="65.16" width="24.37" height="0.78" transform="translate(24.63 181.6) rotate(-66.84)"/><rect class="cls-16" x="111.16" y="65.84" width="24.37" height="0.78" transform="translate(24.99 183.5) rotate(-66.86)"/><path class="cls-17" d="M118,44l15.31,6.54a.08.08,0,0,0,.11,0l.17-.42a.07.07,0,0,0,0-.1l-15.3-6.55a.1.1,0,0,0-.11.05l-.18.42A.07.07,0,0,0,118,44Z" transform="translate(11.02 29.87)"/><path class="cls-17" d="M117.68,44.67l15.38,6.57a0,0,0,0,0,.05,0l.09-.21a0,0,0,0,0,0,0L117.8,44.38s0,0,0,0l-.09.2A0,0,0,0,0,117.68,44.67Z" transform="translate(11.02 29.87)"/><polygon class="cls-18" points="144.4 111.47 131.49 105.96 130.71 107.78 143.37 113.2 144.4 111.47"/><path class="cls-18" d="M107.64,72.76l.78-1.83-23.51-10L84.46,62A.83.83,0,0,0,84.9,63Z" transform="translate(11.02 29.87)"/><polygon class="cls-18" points="146.67 107.69 133.21 101.94 132.82 102.83 146.17 108.53 146.67 107.69"/><rect class="cls-19" x="101.32" y="55.03" width="0.97" height="17.71" transform="translate(14.09 162.29) rotate(-66.88)"/><path class="cls-18" d="M130.11,58.08a.84.84,0,0,1-1.1.44l-.87-.37-.36.85,2.68,1.15,1.16-2.73a.83.83,0,0,0-.43-1.09l-.28-.12Z" transform="translate(11.02 29.87)"/><rect class="cls-19" x="114.1" y="51.39" width="0.93" height="2.92" transform="translate(31.99 167.32) rotate(-66.88)"/><path class="cls-18" d="M132,63a.84.84,0,0,1-1.1.43l-4.27-1.82-.37.85,6.09,2.6,1.16-2.72a.84.84,0,0,0-.44-1.1l-.27-.11Z" transform="translate(11.02 29.87)"/><rect class="cls-19" x="110.91" y="52.3" width="0.93" height="6.62" transform="translate(27.43 165.97) rotate(-66.82)"/><path class="cls-18" d="M134.73,66.1l-.8,1.87a.85.85,0,0,1-1.1.44l-7.67-3.28-.37.85L134.28,70l1.16-2.73a.83.83,0,0,0-.44-1.09Z" transform="translate(11.02 29.87)"/><rect class="cls-19" x="107.71" y="53.22" width="0.93" height="10.32" transform="translate(23.01 164.79) rotate(-66.87)"/><path class="cls-18" d="M136.64,71l-.8,1.87a.84.84,0,0,1-1.1.44l-11.08-4.73-.36.85L136.19,75l1.16-2.72a.85.85,0,0,0-.44-1.1Z" transform="translate(11.02 29.87)"/><rect class="cls-19" x="104.52" y="54.13" width="0.93" height="14.02" transform="translate(18.52 163.52) rotate(-66.86)"/><path class="cls-20" d="M90.62,60.79,98.18,64a.58.58,0,0,1,.3.76h0a.57.57,0,0,1-.76.31l-7.56-3.23a.58.58,0,0,1-.3-.76h0A.57.57,0,0,1,90.62,60.79Z" transform="translate(11.02 29.87)"/><path class="cls-20" d="M88.9,60.05l-.24-.1a.58.58,0,0,0-.76.31h0a.58.58,0,0,0,.3.76l.24.1a.58.58,0,0,0,.76-.3h0A.59.59,0,0,0,88.9,60.05Z" transform="translate(11.02 29.87)"/><path class="cls-20" d="M99.79,60.39l7.56,3.23a.58.58,0,0,1,.3.76h0a.59.59,0,0,1-.76.31l-7.56-3.23a.59.59,0,0,1-.3-.77h0A.58.58,0,0,1,99.79,60.39Z" transform="translate(11.02 29.87)"/><path class="cls-20" d="M98.07,59.65l-.24-.1a.57.57,0,0,0-.76.31h0a.58.58,0,0,0,.3.76l.24.1a.57.57,0,0,0,.76-.31h0A.58.58,0,0,0,98.07,59.65Z" transform="translate(11.02 29.87)"/><path class="cls-20" d="M127.75,68.16l7.56,3.23a.6.6,0,0,1,.31.77h0a.59.59,0,0,1-.77.3l-7.56-3.23a.58.58,0,0,1-.3-.76h0A.58.58,0,0,1,127.75,68.16Z" transform="translate(11.02 29.87)"/><path class="cls-20" d="M126,67.43l-.24-.1a.58.58,0,0,0-.76.3h0a.57.57,0,0,0,.3.76l.24.11a.6.6,0,0,0,.77-.31h0A.59.59,0,0,0,126,67.43Z" transform="translate(11.02 29.87)"/><path class="cls-20" d="M112.77,53.53l1.39.59a.58.58,0,0,1,.3.76h0a.58.58,0,0,1-.76.31l-1.38-.59a.59.59,0,0,1-.31-.77h0A.58.58,0,0,1,112.77,53.53Z" transform="translate(11.02 29.87)"/><path class="cls-20" d="M111.05,52.79l-.24-.1a.58.58,0,0,0-.76.31h0a.58.58,0,0,0,.31.76l.23.1a.59.59,0,0,0,.77-.3h0A.59.59,0,0,0,111.05,52.79Z" transform="translate(11.02 29.87)"/><rect class="cls-21" x="155.66" y="39.87" width="3.64" height="5.05" transform="translate(47.66 181.79) rotate(-57.26)"/><path class="cls-22" d="M157.38,44.5l.79.5,1.18-1.83a.48.48,0,0,0-.14-.65h0a.48.48,0,0,0-.65.15Z" transform="translate(11.02 29.87)"/><path class="cls-22" d="M156.1,43.68l.79.5,1.18-1.83a.48.48,0,0,0-.14-.65h0a.48.48,0,0,0-.65.14Z" transform="translate(11.02 29.87)"/><path class="cls-22" d="M154.82,42.85l.79.51,1.18-1.83a.48.48,0,0,0-.14-.65h0A.47.47,0,0,0,156,41Z" transform="translate(11.02 29.87)"/><path class="cls-23" d="M154.74,56.57l-9-5.8a.63.63,0,0,0-.86.19L122.33,86a.61.61,0,0,0,.18.86l9,5.8a.63.63,0,0,0,.86-.19l22.53-35.05A.61.61,0,0,0,154.74,56.57Z" transform="translate(11.02 29.87)"/><rect class="cls-24" x="141.68" y="53.81" width="10.12" height="10.58" rx="0.23" transform="translate(28.68 180.43) rotate(-57.26)"/><path class="cls-9" d="M148.74,56a3.71,3.71,0,1,1-5.12,1.12A3.71,3.71,0,0,1,148.74,56Z" transform="translate(11.02 29.87)"/><path class="cls-22" d="M146.86,58.91a.23.23,0,0,1,.07.32.24.24,0,0,1-.32.07.25.25,0,0,1-.07-.32A.23.23,0,0,1,146.86,58.91Z" transform="translate(11.02 29.87)"/><path class="cls-22" d="M146.87,59.19a.16.16,0,0,1-.22,0,.15.15,0,0,1,0-.21l1.41-2.2a.15.15,0,0,1,.22,0,.17.17,0,0,1,0,.22Z" transform="translate(11.02 29.87)"/><path class="cls-22" d="M146.59,59.14a.15.15,0,0,1,.12-.19.15.15,0,0,1,.18.12l.4,1.81a.18.18,0,0,1-.12.19.17.17,0,0,1-.19-.13Z" transform="translate(11.02 29.87)"/><path class="cls-22" d="M147.52,62.45a.08.08,0,0,1,0,.06.07.07,0,0,1-.06,0l-.07-.34s0-.05,0-.05a0,0,0,0,1,.05,0l.08.34Zm-3.35-5.06s0,0,0,.07,0,0-.07,0l-.29-.19s0,0,0-.06a.06.06,0,0,1,.07,0l.29.19Zm5.48,3.53s0,0,0,.07a.06.06,0,0,1-.07,0l-.29-.19a0,0,0,0,1,0-.06,0,0,0,0,1,.06,0l.29.19Zm-5.94-1.21a.05.05,0,0,1,0,.1l-.34.07s0,0,0,0,0-.05,0-.06l.34-.07Zm6.37-1.38s.06,0,.06,0a0,0,0,0,1,0,.06l-.34.07a0,0,0,0,1-.06,0s0-.06,0-.06l.33-.07ZM145,61.68a0,0,0,0,1,.06,0,.05.05,0,0,1,0,.07l-.19.29a0,0,0,0,1-.06,0,0,0,0,0,1,0-.06l.19-.29Zm3.53-5.49a0,0,0,0,1,.06,0,.05.05,0,0,1,0,.07l-.19.29a0,0,0,0,1-.07,0s0,0,0-.06l.19-.29Zm-2.43-.12s0,0,0,.06-.05,0-.05,0l-.08-.33s0-.06,0-.06.05,0,.06,0Z" transform="translate(11.02 29.87)"/><rect class="cls-21" x="149.73" y="46.38" width="3.02" height="11.45" transform="translate(36.64 181.01) rotate(-57.26)"/><path class="cls-22" d="M150.14,53.19l-.94-.6.78-1.22a.56.56,0,0,1,.77-.17h0a.57.57,0,0,1,.17.78Z" transform="translate(11.02 29.87)"/><path class="cls-22" d="M148.61,52.21l-.94-.61.78-1.21a.57.57,0,0,1,.77-.17h0a.57.57,0,0,1,.17.78Z" transform="translate(11.02 29.87)"/><path class="cls-22" d="M147.09,51.23l-1-.61.78-1.21a.57.57,0,0,1,.78-.17h0a.57.57,0,0,1,.17.77Z" transform="translate(11.02 29.87)"/><path class="cls-22" d="M154.7,56.12l-.94-.6.78-1.21a.55.55,0,0,1,.77-.17h0a.55.55,0,0,1,.17.77Z" transform="translate(11.02 29.87)"/><path class="cls-22" d="M153.17,55.14l-.94-.6.78-1.22a.56.56,0,0,1,.78-.16h0a.55.55,0,0,1,.16.77Z" transform="translate(11.02 29.87)"/><path class="cls-22" d="M151.65,54.16l-.94-.61.77-1.21a.58.58,0,0,1,.78-.17h0a.58.58,0,0,1,.17.78Z" transform="translate(11.02 29.87)"/><path class="cls-25" d="M158.86,44.93l-1.79,8.24-.22.34-9.22-5.93.22-.34,6.76-5Z" transform="translate(11.02 29.87)"/><polygon class="cls-25" points="173.66 64.23 171.83 71.75 171.51 72.04 169.49 70.72 167.46 69.43 167.59 69.02 173.66 64.23"/><path class="cls-22" d="M162.65,34.36l-1.83,7.52-.12.1-4.18-2.69,0-.14,1.14-.9,1,.65c1.59,1,2.18-.43,2.18-.43l1-3.5Z" transform="translate(11.02 29.87)"/><path class="cls-22" d="M162.49,34.61a.64.64,0,0,1-.69,1.07.62.62,0,0,1-.19-.88A.63.63,0,0,1,162.49,34.61Z" transform="translate(11.02 29.87)"/><path class="cls-22" d="M162.15,34.15l.9.57a.25.25,0,0,1,.07.34h0a.24.24,0,0,1-.33.07l-.9-.58a.24.24,0,0,1-.07-.33h0A.23.23,0,0,1,162.15,34.15Z" transform="translate(11.02 29.87)"/><path class="cls-22" d="M162.33,34.41l1.14-1.78a.25.25,0,0,1,.34-.07h0a.24.24,0,0,1,.07.33l-1.15,1.78a.24.24,0,0,1-.33.07h0A.24.24,0,0,1,162.33,34.41Z" transform="translate(11.02 29.87)"/><rect class="cls-26" x="142.44" y="58.16" width="1.46" height="13" rx="0.16" transform="translate(22.37 179.98) rotate(-57.26)"/><rect class="cls-26" x="151.6" y="44.7" width="1.12" height="11.96" rx="0.25" transform="translate(38.26 181.12) rotate(-57.26)"/><rect class="cls-26" x="149.5" y="47.17" width="1.46" height="13" rx="0.16" transform="matrix(0.54, -0.84, 0.84, 0.54, 34.86, 180.88)"/><path class="cls-26" d="M158.42,38h.1a.36.36,0,0,1,.36.36v5a.36.36,0,0,1-.36.36h-.1a.35.35,0,0,1-.35-.35v-5a.35.35,0,0,1,.35-.35Z" transform="translate(49.42 181.92) rotate(-57.26)"/><path class="cls-22" d="M138.39,63.7h0a.56.56,0,0,1,.16.77l-3.23,5a.56.56,0,0,1-.77.17h0a.55.55,0,0,1-.17-.77l3.23-5A.57.57,0,0,1,138.39,63.7Z" transform="translate(11.02 29.87)"/><path class="cls-22" d="M139.91,64.68h0a.56.56,0,0,1,.17.77l-3.23,5a.57.57,0,0,1-.78.16h0a.55.55,0,0,1-.16-.77l3.23-5A.55.55,0,0,1,139.91,64.68Z" transform="translate(11.02 29.87)"/><path class="cls-22" d="M141.44,65.66h0a.57.57,0,0,1,.17.78l-3.24,5a.56.56,0,0,1-.77.17h0a.58.58,0,0,1-.17-.78l3.24-5A.56.56,0,0,1,141.44,65.66Z" transform="translate(11.02 29.87)"/><path class="cls-22" d="M143,66.65h0a.56.56,0,0,1,.17.77l-3.24,5a.56.56,0,0,1-.77.17h0a.57.57,0,0,1-.17-.78l3.23-5A.56.56,0,0,1,143,66.65Z" transform="translate(11.02 29.87)"/><path class="cls-22" d="M144.5,67.63h0a.56.56,0,0,1,.16.77l-3.23,5a.56.56,0,0,1-.77.17h0a.55.55,0,0,1-.17-.77l3.23-5A.57.57,0,0,1,144.5,67.63Z" transform="translate(11.02 29.87)"/><path class="cls-22" d="M146,68.61h0a.55.55,0,0,1,.17.77l-3.23,5a.57.57,0,0,1-.78.17h0a.56.56,0,0,1-.17-.77l3.24-5A.55.55,0,0,1,146,68.61Z" transform="translate(11.02 29.87)"/><path class="cls-27" d="M133.13,69.21l10.06,6.47a.23.23,0,0,1,.07.31l0,0a.22.22,0,0,1-.31.07l-10.06-6.47a.22.22,0,0,1-.07-.3l0,0A.22.22,0,0,1,133.13,69.21Z" transform="translate(11.02 29.87)"/><path class="cls-22" d="M133.47,71.34h0a.55.55,0,0,1,.17.77l-3.23,5a.57.57,0,0,1-.78.17h0a.55.55,0,0,1-.16-.77l3.23-5A.55.55,0,0,1,133.47,71.34Z" transform="translate(11.02 29.87)"/><path class="cls-22" d="M135,72.32h0a.55.55,0,0,1,.17.77l-3.23,5a.57.57,0,0,1-.78.17h0a.56.56,0,0,1-.17-.77l3.24-5A.55.55,0,0,1,135,72.32Z" transform="translate(11.02 29.87)"/><path class="cls-22" d="M136.53,73.3h0a.58.58,0,0,1,.17.78l-3.24,5a.55.55,0,0,1-.77.16h0a.55.55,0,0,1-.17-.77l3.24-5A.56.56,0,0,1,136.53,73.3Z" transform="translate(11.02 29.87)"/><path class="cls-22" d="M138.06,74.28h0a.56.56,0,0,1,.16.78l-3.23,5a.56.56,0,0,1-.77.17h0a.57.57,0,0,1-.17-.78l3.23-5A.58.58,0,0,1,138.06,74.28Z" transform="translate(11.02 29.87)"/><path class="cls-22" d="M139.58,75.27h0a.55.55,0,0,1,.17.77l-3.23,5a.57.57,0,0,1-.78.17h0a.56.56,0,0,1-.16-.78l3.23-5A.56.56,0,0,1,139.58,75.27Z" transform="translate(11.02 29.87)"/><path class="cls-22" d="M141.11,76.25h0a.55.55,0,0,1,.17.77l-3.24,5a.55.55,0,0,1-.77.17h0a.56.56,0,0,1-.17-.77l3.24-5A.55.55,0,0,1,141.11,76.25Z" transform="translate(11.02 29.87)"/><path class="cls-27" d="M128.22,76.85l10.06,6.46a.24.24,0,0,1,.07.31l0,0a.22.22,0,0,1-.31.07L128,77.25a.23.23,0,0,1-.07-.31l0,0A.22.22,0,0,1,128.22,76.85Z" transform="translate(11.02 29.87)"/><path class="cls-22" d="M128.56,79h0a.55.55,0,0,1,.17.77l-3.23,5a.57.57,0,0,1-.78.17h0a.58.58,0,0,1-.17-.78l3.24-5A.56.56,0,0,1,128.56,79Z" transform="translate(11.02 29.87)"/><path class="cls-22" d="M130.09,80h0a.56.56,0,0,1,.17.77l-3.24,5a.55.55,0,0,1-.77.17h0a.55.55,0,0,1-.17-.77l3.24-5A.55.55,0,0,1,130.09,80Z" transform="translate(11.02 29.87)"/><path class="cls-22" d="M131.62,80.94h0a.57.57,0,0,1,.17.77l-3.24,5a.56.56,0,0,1-.77.16h0a.55.55,0,0,1-.17-.77l3.23-5A.57.57,0,0,1,131.62,80.94Z" transform="translate(11.02 29.87)"/><path class="cls-22" d="M133.14,81.92h0a.57.57,0,0,1,.17.78l-3.23,5a.58.58,0,0,1-.78.17h0a.56.56,0,0,1-.16-.77l3.23-5A.57.57,0,0,1,133.14,81.92Z" transform="translate(11.02 29.87)"/><path class="cls-22" d="M134.67,82.91h0a.55.55,0,0,1,.17.77l-3.23,5a.58.58,0,0,1-.78.17h0a.58.58,0,0,1-.17-.78l3.24-5A.55.55,0,0,1,134.67,82.91Z" transform="translate(11.02 29.87)"/><path class="cls-22" d="M136.2,83.89h0a.56.56,0,0,1,.17.77l-3.24,5a.55.55,0,0,1-.77.17h0a.56.56,0,0,1-.17-.77l3.24-5A.55.55,0,0,1,136.2,83.89Z" transform="translate(11.02 29.87)"/><path class="cls-27" d="M123.31,84.49,133.37,91a.22.22,0,0,1,.06.31v0a.22.22,0,0,1-.31.07l-10.06-6.47a.22.22,0,0,1-.07-.31l0,0A.22.22,0,0,1,123.31,84.49Z" transform="translate(11.02 29.87)"/><path class="cls-22" d="M154,49.37l-4.83-3.1-1.3,1,9.22,5.93,1.79-8.24-.46-.29-.78-.51-.11-.07-.11.41v0l-1.24,4.44S155.56,50.39,154,49.37Z" transform="translate(11.02 29.87)"/><path class="cls-28" d="M149.11,48.39l3.17,2a.3.3,0,0,1,.09.4h0a.29.29,0,0,1-.4.08l-3.17-2a.27.27,0,0,1-.09-.39h0A.28.28,0,0,1,149.11,48.39Z" transform="translate(11.02 29.87)"/><path class="cls-28" d="M148.24,47.83l-.06,0a.29.29,0,0,0-.4.09h0a.28.28,0,0,0,.09.4l0,0a.29.29,0,0,0,.4-.08h0A.29.29,0,0,0,148.24,47.83Z" transform="translate(11.02 29.87)"/><path class="cls-28" d="M147.63,51.65l4.9,3.16a.28.28,0,0,1,.09.4h0a.29.29,0,0,1-.4.08l-4.9-3.15a.29.29,0,0,1-.09-.4h0A.3.3,0,0,1,147.63,51.65Z" transform="translate(11.02 29.87)"/><path class="cls-28" d="M146.58,51l-.32-.21a.3.3,0,0,0-.4.09h0a.3.3,0,0,0,.09.4l.31.2a.29.29,0,0,0,.4-.08h0A.29.29,0,0,0,146.58,51Z" transform="translate(11.02 29.87)"/><path class="cls-28" d="M140.57,62.64l4.9,3.15a.3.3,0,0,1,.09.4h0a.28.28,0,0,1-.4.09l-4.91-3.15a.29.29,0,0,1-.08-.4h0A.29.29,0,0,1,140.57,62.64Z" transform="translate(11.02 29.87)"/><path class="cls-28" d="M139.51,62l-.31-.2a.29.29,0,0,0-.4.09h0a.29.29,0,0,0,.08.4l.32.2a.28.28,0,0,0,.4-.09h0A.29.29,0,0,0,139.51,62Z" transform="translate(11.02 29.87)"/><path class="cls-29" d="M34.16,112.46l-21.35-4.74s-.57-.61-.4-1,.34-.76.48-1.08a.84.84,0,0,0-.23-1.06c-.41-.39-.73-.68-.79-.75s-.33-.29-.21-.57l3.1-7c.15-.33.44-.92,1.67-.86s8,.27,8.27.27,1.25-.06,1.58-.79,3.58-8.07,3.93-8.86.86-1,2-.94,13.37,1.65,13.37,1.65Z" transform="translate(11.02 29.87)"/><path class="cls-30" d="M26.28,94.89l0,0,0,0,0-.06,0-.06,0-.08,0-.08,0-.09.05-.1,0-.1.05-.12.06-.12.05-.12.06-.13.06-.14.07-.14.06-.15.07-.16.07-.15.07-.17.08-.16.07-.17.08-.17.07-.18.08-.18.08-.18.09-.18.08-.19.08-.18.08-.19.09-.19.08-.19.09-.19.08-.19.08-.19.09-.19.08-.19.09-.18.08-.19.08-.18L28.9,89l.08-.18.08-.18.08-.17.07-.18.07-.16.08-.17.07-.15.07-.16.06-.15.07-.14.06-.14.06-.14L29.8,87l.06-.12.05-.12L30,86.6l0-.1,0-.09,0-.09,0-.07,0-.07,0-.06,0-.05v0c.36-.8.86-1,2-.94s13.37,1.65,13.37,1.65L34.72,111.19l-13.1-5.82Z" transform="translate(11.02 29.87)"/><path class="cls-27" d="M27.87,126.63l-15.47-18s-.58-.61-.4-1l.47-1.08a.84.84,0,0,0-.23-1.06c-.41-.39-.72-.68-.79-.76s-.33-.28-.21-.56.28-.63.43-1,.43-.93,1.67-.87,8,.28,8.27.27,1.25,0,1.58-.78.38-.87.74-1.67.85-1,2-.93,13.37,1.65,13.37,1.65Z" transform="translate(11.02 29.87)"/><rect class="cls-24" x="12.6" y="105.88" width="5.78" height="0.63" rx="0.16" transform="translate(-76.84 107.13) rotate(-66.06)"/><path class="cls-31" d="M27.59,99.45l.66.08-1.2,2.69a.15.15,0,0,1-.2.08l-.29-.13a.16.16,0,0,1-.08-.21Z" transform="translate(11.02 29.87)"/><path class="cls-31" d="M13.27,102.37h.07l.61,0-.88,2a.15.15,0,0,1-.21.08l-.29-.12a.18.18,0,0,1-.08-.21Z" transform="translate(11.02 29.87)"/><rect class="cls-24" x="17.29" y="107.33" width="5.78" height="0.63" rx="0.16" transform="translate(-75.38 112.29) rotate(-66.07)"/><path class="cls-31" d="M15.82,112.64l-.22-.26,1.78-4a.16.16,0,0,1,.21-.08l.29.13a.14.14,0,0,1,.08.2l-1.9,4.29Z" transform="translate(11.02 29.87)"/><rect class="cls-24" x="21.35" y="103.67" width="0.89" height="0.63" rx="0.16" transform="translate(-71.08 111.64) rotate(-66.09)"/><path class="cls-29" d="M28.84,124.46l-11.75-10,2.18-4.92c.58-1.31,1-1.38,1.88-1.43l1.65-.1a2.25,2.25,0,0,0,2.11-1.29l.72-1.63s.3-.74,1.59-.53S37,106,37,106Z" transform="translate(11.02 29.87)"/><path class="cls-30" d="M22.88,119.38l-2.61-2.23,4.64-10.45.72-1.63h0c0-.08.37-.72,1.58-.52S37,106,37,106l-7.27,16.38Z" transform="translate(11.02 29.87)"/><path class="cls-31" d="M26.51,129.7l-9.83-11.3c-1-1.17-.75-1.35-.14-2.73l.5-1.13c.62-1.4.33-1.12,1.88-1.21l1.56-.09a2.24,2.24,0,0,0,2.1-1.29l.72-1.63s.3-.74,1.59-.53,9.79,1.49,9.79,1.49Z" transform="translate(11.02 29.87)"/><rect class="cls-32" x="19.61" y="119.66" width="5.78" height="0.63" rx="0.16" transform="translate(-85.27 121.72) rotate(-66.06)"/><rect class="cls-32" x="24.44" y="113.84" width="5.78" height="0.63" rx="0.16" transform="translate(-77.08 122.68) rotate(-66.06)"/><rect class="cls-32" x="19.29" y="115.75" width="5.78" height="0.63" rx="0.16" transform="translate(-81.88 119.11) rotate(-66.06)"/><path class="cls-33" d="M31.2,112.52l.73-1.65.65.09-.8,1.82a.16.16,0,0,1-.21.08l-.29-.13A.15.15,0,0,1,31.2,112.52Z" transform="translate(11.02 29.87)"/><path class="cls-33" d="M18.24,115.5l1-2.19.71,0-1.11,2.49a.16.16,0,0,1-.21.08l-.29-.13A.17.17,0,0,1,18.24,115.5Z" transform="translate(11.02 29.87)"/><rect class="cls-32" x="26.06" y="120.55" width="5.78" height="0.63" rx="0.16" transform="translate(-82.25 128.16) rotate(-66.06)"/><path class="cls-33" d="M24.35,127.22l1.9-4.29a.16.16,0,0,0-.08-.21l-.29-.13a.17.17,0,0,0-.21.08l-1.78,4Z" transform="translate(11.02 29.87)"/><rect class="cls-32" x="23.3" y="112.22" width="0.89" height="0.63" rx="0.16" transform="translate(-77.73 118.5) rotate(-66.09)"/><rect class="cls-32" x="30.03" y="117.11" width="0.89" height="0.63" rx="0.16" transform="translate(-78.21 127.57) rotate(-66.09)"/><rect class="cls-32" x="17.65" y="116.29" width="0.89" height="0.63" rx="0.16" transform="translate(-84.81 115.74) rotate(-66.08)"/><path class="cls-34" d="M18,42.78l1.81-1.37.31.43c.57.79,1.18,1.56,1.79,2.33,1.55,2,3.17,3.88,4.83,5.76A114.37,114.37,0,0,0,42.86,65.22C49.28,70.11,57.7,75,66,74.91l1.57,0-7.85,6-.31-.42A9.09,9.09,0,0,0,45,91.43l.31.42-7.85,6,.44-1.51c2.33-8-.13-17.41-3.12-24.91A114,114,0,0,0,24.33,51.74c-1.36-2.1-2.77-4.17-4.25-6.19-.57-.79-1.16-1.58-1.76-2.35L18,42.78Zm14,16.6c.15.25.3.49.44.74.58,1,1.14,1.94,1.67,2.93a18.3,18.3,0,0,1,1.08,2.28,2.51,2.51,0,0,0,1-.47,2.32,2.32,0,0,0,.71-.81A17.64,17.64,0,0,1,35,62.39c-.81-.77-1.6-1.57-2.38-2.38L32,59.38ZM43.63,74.67,46,72.88c.27-.2.35-.35.08-.6-.91-.79-1.84-1.57-2.75-2.35l-2.46-2.1c-.26-.23-.73-.55-1.07-.29l-1,.75-1,.75c-.34.26-.16.8,0,1.12.45,1,.91,2,1.36,2.93s1,2.19,1.53,3.27c.17.33.33.29.6.09Z" transform="translate(11.02 29.87)"/><path class="cls-35" d="M16.86,43.64l1.8-1.37.31.43c.58.79,1.19,1.56,1.79,2.33Q23.1,48,25.59,50.79a115.64,115.64,0,0,0,16.14,15.3c6.42,4.88,14.84,9.79,23.16,9.68l1.57,0-7.85,6-.32-.42a9.09,9.09,0,1,0-14.47,11l.32.41-7.86,6,.45-1.51c2.33-8-.14-17.41-3.12-24.91A115.44,115.44,0,0,0,23.2,52.6c-1.36-2.1-2.78-4.17-4.25-6.19-.58-.79-1.16-1.58-1.77-2.35l-.32-.42Zm14,16.6c.14.25.29.5.44.74.57,1,1.14,1.94,1.66,2.93a15.84,15.84,0,0,1,1.08,2.28,2.41,2.41,0,0,0,1-.47c.16-.12.66-.57.71-.81a18.84,18.84,0,0,1-1.91-1.65c-.81-.78-1.59-1.58-2.37-2.39l-.59-.63ZM42.5,75.53l2.34-1.78c.27-.21.36-.36.08-.61-.9-.79-1.83-1.57-2.74-2.35l-2.46-2.1c-.26-.22-.74-.55-1.08-.29l-1,.75-1,.75c-.34.26-.15.8,0,1.12.45,1,.9,2,1.36,2.93s1,2.19,1.53,3.27c.16.34.33.3.6.09Z" transform="translate(11.02 29.87)"/><path class="cls-36" d="M52.78,69.11h0a2.44,2.44,0,0,1-.47,3.41L37,84.18a2.44,2.44,0,0,1-3.41-.47h0Z" transform="translate(11.02 29.87)"/><path class="cls-37" d="M32.7,83.62,52.92,68.26a.59.59,0,0,1,.83.11h0a.6.6,0,0,1-.11.84L33.42,84.57a.61.61,0,0,1-.84-.12h0A.6.6,0,0,1,32.7,83.62Z" transform="translate(11.02 29.87)"/><path class="cls-36" d="M16.36,41.34l1.06-.81a1.26,1.26,0,0,1,1.77.12l1.51,2a1.26,1.26,0,0,1-.36,1.73l-1.07.81a1.26,1.26,0,0,1-1.77-.11l-1.5-2A1.25,1.25,0,0,1,16.36,41.34Z" transform="translate(11.02 29.87)"/><path class="cls-36" d="M18.05,45.1l2.54-1.93c.42-.31.94-.34,1.15-.05l.4.51c.21.29.05.78-.37,1.1l-2.53,1.93c-.42.31-.94.34-1.15.05l-.4-.52C17.47,45.91,17.64,45.42,18.05,45.1Z" transform="translate(11.02 29.87)"/><path class="cls-36" d="M12,34.82l.33-.26a.43.43,0,0,1,.6.09l4.58,6a.44.44,0,0,1-.07.6l-.34.25a.43.43,0,0,1-.6-.09l-4.57-6A.42.42,0,0,1,12,34.82Z" transform="translate(11.02 29.87)"/><path class="cls-36" d="M40.5,61.9h0A2.44,2.44,0,0,1,40,65.31l-6.73,5.11A2.44,2.44,0,0,1,29.9,70h0Z" transform="translate(11.02 29.87)"/><path class="cls-37" d="M29,69.86l11.61-8.81a.59.59,0,0,1,.83.11h0a.59.59,0,0,1-.12.83l-11.6,8.82a.6.6,0,0,1-.83-.12h0A.59.59,0,0,1,29,69.86Z" transform="translate(11.02 29.87)"/><rect class="cls-38" x="40.11" y="41.33" width="36.63" height="6.81" rx="0.97" transform="translate(-2.54 59.32) rotate(-25.45)"/><path class="cls-39" d="M43.36,55.69,76.43,39.94,89,66.25,77.76,71.58l-7-14.69A5.92,5.92,0,1,0,60.08,62l7,14.69L55.88,82Z" transform="translate(11.02 29.87)"/><path class="cls-40" d="M43.36,55.69l.1,0,.54-.26.06,0,.57-.27h0l.58-.28h0l.58-.28h0l.54-.26.06,0,.49-.23.09,0,.46-.22.12-.06.42-.2.15-.07.38-.18.17-.08.36-.17.19-.09.33-.16.21-.1.3-.14.23-.11.27-.13.26-.12.24-.12.27-.13.22-.1.29-.14.2-.09.31-.15.17-.08.33-.16.14-.07.35-.16.13-.06.35-.18.12-.05.37-.17.09-.05.38-.18.08,0,.4-.19.06,0,.4-.19.06,0,.41-.19,0,0,.41-.2,0,0,.42-.2h0l.43-.21h0l.43-.2h0l.43-.21h0l.43-.21h0l.43-.21h0l.43-.21h0l.43-.2h0l.43-.21h0l.42-.2,0,0,.41-.2,0,0,.41-.19.06,0,.4-.19.07,0,.39-.19.08,0,.38-.18.1,0,.37-.17.11,0,.35-.18.13-.06.35-.16.14-.07.33-.16.17-.08.32-.15.19-.09.29-.14.22-.1.27-.13.24-.12.26-.12.27-.12.23-.12.3-.14.22-.1.32-.16.19-.09.36-.17.17-.08.38-.18L70,43l.42-.2.12-.06.46-.21.09,0,.49-.23.06,0,.54-.26h0l.58-.28h0l.58-.28h0l.57-.27.06,0,.54-.26.1-.05L87.17,67.1l-9.41,4.48-7-14.69a5.94,5.94,0,0,0-7.89-2.8,8,8,0,0,0-.86.5,7,7,0,0,0-.93.35,5.94,5.94,0,0,0-2.8,7.89l7,14.69L55.88,82Z" transform="translate(11.02 29.87)"/><path class="cls-41" d="M48.51,66.62l11.36-5.41a1,1,0,0,1,1.28.46h0A1,1,0,0,1,60.7,63l-11.36,5.4a1,1,0,0,1-1.29-.45h0A1,1,0,0,1,48.51,66.62Z" transform="translate(11.02 29.87)"/><path class="cls-41" d="M44.46,58.5,62.38,50l15.54-7.4a1.52,1.52,0,0,0,.72-2h0a1.52,1.52,0,0,0-2-.72l-15.55,7.4L43.16,55.78a1.52,1.52,0,0,0-.71,2h0A1.51,1.51,0,0,0,44.46,58.5Z" transform="translate(11.02 29.87)"/><path class="cls-40" d="M80.16,36.77l-20.81,9.9-20.81,9.9c-.31.15-.18.52.29.83l1,.66a1.71,1.71,0,0,0,1.41.3l19.29-9.18L79.83,40a1.72,1.72,0,0,0,.66-1.28l.13-1.21C80.67,37,80.47,36.62,80.16,36.77Z" transform="translate(11.02 29.87)"/><path class="cls-41" d="M40.26,50.57,74.41,34.32a.58.58,0,0,1,.78.27h0a.59.59,0,0,1-.28.78L40.76,51.62a.58.58,0,0,1-.77-.27h0A.58.58,0,0,1,40.26,50.57Z" transform="translate(11.02 29.87)"/><rect class="cls-42" x="47.11" y="56.36" width="10.06" height="6.69" rx="0.46" transform="translate(-9.58 58.07) rotate(-25.45)"/><rect class="cls-38" x="48.46" y="57.72" width="7.34" height="3.98" transform="translate(-9.58 58.07) rotate(-25.45)"/><rect class="cls-42" x="53.08" y="66.41" width="10.06" height="11.69" rx="0.46" transform="translate(-14.39 61.85) rotate(-25.45)"/><rect class="cls-38" x="54.43" y="67.76" width="7.34" height="8.98" transform="translate(-14.39 61.85) rotate(-25.45)"/><path class="cls-41" d="M70.39,56.2l11.36-5.4a1,1,0,0,1,1.29.45h0a1,1,0,0,1-.46,1.29L71.22,58a1,1,0,0,1-1.29-.46h0A1,1,0,0,1,70.39,56.2Z" transform="translate(11.02 29.87)"/><rect class="cls-42" x="68.99" y="45.95" width="10.06" height="6.69" rx="0.46" transform="translate(-2.98 66.46) rotate(-25.45)"/><rect class="cls-38" x="70.35" y="47.3" width="7.34" height="3.98" transform="translate(-2.98 66.46) rotate(-25.45)"/><rect class="cls-42" x="74.96" y="55.99" width="10.06" height="11.69" rx="0.46" transform="translate(-7.79 70.24) rotate(-25.45)"/><rect class="cls-38" x="76.32" y="57.35" width="7.34" height="8.98" transform="translate(-7.79 70.25) rotate(-25.45)"/><path class="cls-39" d="M73.17,36.2l.58,1.22a1,1,0,0,1-.45,1.29l-31,14.75.51,1.08,16.54-7.87L75.89,38.8l-1.51-3.18Z" transform="translate(11.02 29.87)"/><path class="cls-39" d="M72.67,35.15l1.2-.57a1,1,0,0,0-1.24-.37l-.33.16Z" transform="translate(11.02 29.87)"/><path class="cls-43" d="M41.89,55.65l.94-.45a.65.65,0,0,1,.86.31h0a.65.65,0,0,1-.31.86l-.94.44a.64.64,0,0,1-.86-.3h0A.65.65,0,0,1,41.89,55.65Z" transform="translate(11.02 29.87)"/><path class="cls-43" d="M44.93,54.2l8.48-4a.65.65,0,0,1,.86.3h0a.65.65,0,0,1-.31.86l-8.48,4a.64.64,0,0,1-.85-.31h0A.64.64,0,0,1,44.93,54.2Z" transform="translate(11.02 29.87)"/><path class="cls-44" d="M83.85,41.14v.2a.85.85,0,0,0,.53.61l11.45,6.12.2.78h.64a.82.82,0,0,0,.7-.73v-.68l-.73-.53L86.85,40.3Z" transform="translate(11.02 29.87)"/><rect class="cls-45" x="95.27" y="69.91" width="12.17" height="19.82"/><path class="cls-46" d="M95.52,59.86H94.06V41.15h1.46V59.86Zm-2.37,0h-.66V41.15h.66V59.86Zm-3.31,0H88.52V41.15h1.32V59.86Zm-4.12,0h-.58V41.15h.58Z" transform="translate(11.02 29.87)"/><path class="cls-44" d="M84.25,40H96.42v7.67a16.29,16.29,0,0,0-1.59-1c-1.42-.82-6.31-3.64-7.5-4.3a5.78,5.78,0,0,0-2.86-.61h-.22Z" transform="translate(11.02 29.87)"/><path class="cls-47" d="M90.15,15.19l-2.33.1v2c0,.4.09,1.69-1.73,1.69H80.7c-1.23,0-1.25,1-3,1H70.15c-.91,0-.75-.68-1.69-.68H65.07c-.73,0-.87.8.34,1.58a20,20,0,0,0,2.22,1.32,6.09,6.09,0,0,0,2.07.19c.54,0,.55-.5,1.22-.5h.74v1.62a2.51,2.51,0,0,0,1,1.73,11.3,11.3,0,0,0,2.2,1.56,5.83,5.83,0,0,0,2.71-.16l1.35-.26a7.49,7.49,0,0,1,1.72-.18H81.8a1,1,0,0,1,1.15,1v7c0,.56.9.72.9,1.83v5.14h.62a5.78,5.78,0,0,1,2.86.61c1.19.65,6.08,3.47,7.5,4.29A11.76,11.76,0,0,1,97,47.55a1,1,0,0,1,.35.57V32.58h0V27.21a1,1,0,0,1,1.15-1h1.21a7.58,7.58,0,0,1,1.73.18l1.34.26a5.83,5.83,0,0,0,2.71.16,11.3,11.3,0,0,0,2.2-1.56,2.48,2.48,0,0,0,1-1.73V21.89h.74c.67,0,.68.5,1.22.5a6.07,6.07,0,0,0,2.07-.19,20,20,0,0,0,2.22-1.32c1.21-.78,1.07-1.58.35-1.58h-3.4c-.94,0-.77.68-1.68.68h-7.55c-1.75,0-1.78-1-3-1H94.21c-1.82,0-1.73-1.29-1.73-1.69v-2Z" transform="translate(11.02 29.87)"/><path class="cls-46" d="M83.85,40.43v.71h.62a5.78,5.78,0,0,1,2.86.61c1.19.65,6.08,3.47,7.5,4.29A11.76,11.76,0,0,1,97,47.55a1,1,0,0,1,.35.57V44.23a1.12,1.12,0,0,1-1.22.27c-1.5-.4-1.71-2.7-1.71-4.46V26.6c0-2.94-.81-.43-.81.83V37c0,2.14-1,3.45-3.9,3.45Z" transform="translate(11.02 29.87)"/><path class="cls-46" d="M90.15,15.19l-2.33.1v1.86c.43.3.93.64,1.27.83.75.42.73,1.09.06,1.95s-1.28,1.47-1.44,1.74.24.48.91-.1,1.64-2.28,2.77-2.28H93a1.67,1.67,0,0,0,.89-.37,1.42,1.42,0,0,1-1.38-1.67v-2Z" transform="translate(11.02 29.87)"/><path class="cls-46" d="M97.37,33.66V32.58h0V27.21a1,1,0,0,1,1.15-1h1.21a7.58,7.58,0,0,1,1.73.18l1.34.26a5.83,5.83,0,0,0,2.71.16,11.3,11.3,0,0,0,2.2-1.56,1.37,1.37,0,0,0,.17-.17h0a2.31,2.31,0,0,0,.77-1.56V21.89s-1.56,2.08-2.27,2.9l-.12.13-.15.17v0l0,0,0,0c-1.1,1.26-1.73-.35-1.23-1s.75-1.26.06-.82-3.79,2.31-4.52,2.31-1.18-.46-.89-.84,1.24-1.69,1.75-2.22.4-.87,0-.58-2,1.6-2.73,2.11-1.15.35-1.27,0-.44-1.9-.59-2.47-.55-.95-.44-.26S97.37,33.66,97.37,33.66Z" transform="translate(11.02 29.87)"/><path class="cls-46" d="M83,34.17c0,.56.9.72.9,1.83v1.16c0-1.31,1.51-1.43,2.12-1.43s1-.65.6-.65h-1.2c-.93,0-1.13-.91-1.6-.91Z" transform="translate(11.02 29.87)"/><path class="cls-46" d="M80.47,19c-1,.12-1.14,1-2.78,1H75.9a4.63,4.63,0,0,1,2.6.8c1,.52,6.52,3.88,7.34,4.13a3.22,3.22,0,0,0,1.78.16c.12-.12-.06-.29-.06-.29s-2.64-1.51-4.7-2.88S80.24,20,80.15,19.55A.57.57,0,0,1,80.47,19Z" transform="translate(11.02 29.87)"/><path class="cls-46" d="M67.63,19.3H65.07c-.43,0-.65.27-.53.64h1.13c.53,0,1-.12,1.51.35s.54.57,1,.57.44-.29.33-.39l-.88-.8C67.42,19.5,67.63,19.3,67.63,19.3Z" transform="translate(11.02 29.87)"/><path class="cls-46" d="M79.11,26.33a7.62,7.62,0,0,1,1.48-.13H81.8a1,1,0,0,1,1.15,1c0-1.12-1-1.62-1.8-1.95s-5.44-2.53-5.88-2.73-1-.34-.53.15S79.11,26.33,79.11,26.33Z" transform="translate(11.02 29.87)"/><path class="cls-46" d="M71.66,21.89v1.62a2.51,2.51,0,0,0,1,1.73,11.3,11.3,0,0,0,2.2,1.56l.13.05c0-.94-.3-1.24-1-2.06S71.66,21.89,71.66,21.89Z" transform="translate(11.02 29.87)"/><path class="cls-46" d="M112.66,19.3h2.56c.42,0,.65.27.53.64h-1.13c-.53,0-1-.12-1.51.35s-.54.57-1,.57-.44-.29-.33-.39l.88-.8C112.87,19.5,112.66,19.3,112.66,19.3Z" transform="translate(11.02 29.87)"/><path class="cls-47" d="M90.15,11.51h0a2.36,2.36,0,0,1,2.35,2.35V15a2.35,2.35,0,0,1-2.35,2.34h0A2.35,2.35,0,0,1,87.8,15V13.86A2.36,2.36,0,0,1,90.15,11.51Z" transform="translate(11.02 29.87)"/><path class="cls-46" d="M89.09,13.47a.65.65,0,0,0,.64-.49h0a.09.09,0,0,1,.07-.06.08.08,0,0,1,.09.08l0,.85h0a.09.09,0,0,1-.09.09H88.4a.09.09,0,0,1-.09-.09v-.3h0a.08.08,0,0,1,.09-.08Z" transform="translate(11.02 29.87)"/><path class="cls-46" d="M91.21,13.47a.65.65,0,0,1-.64-.49h0a.09.09,0,0,0-.07-.06.08.08,0,0,0-.09.08l0,.72-.07,1.21a.31.31,0,0,1-.3.17h-.34s.17.19.27.28a.47.47,0,0,0,.39.12c.21,0,.31-.24.31-.5v-.79s0-.26.32-.26h1a.09.09,0,0,0,.08-.09v-.3h0a.08.08,0,0,0-.08-.08Z" transform="translate(11.02 29.87)"/><path class="cls-46" d="M90.06,15.62h.74a.08.08,0,0,1,.09.08h0a.09.09,0,0,1-.09.09h-.74A.09.09,0,0,1,90,15.7h0A.08.08,0,0,1,90.06,15.62Z" transform="translate(11.02 29.87)"/><path class="cls-46" d="M89.55,15.87h1.2a.15.15,0,0,1,.14.14h0a.14.14,0,0,1-.14.14h-1.2a.14.14,0,0,1-.14-.14h0A.15.15,0,0,1,89.55,15.87Z" transform="translate(11.02 29.87)"/><path class="cls-46" d="M91.1,11.71a2.33,2.33,0,0,1,.78,1.75h0a.08.08,0,0,1,.08.08h0v.3a.09.09,0,0,1-.08.09h0v.63a2.2,2.2,0,0,1-.1.68,2.36,2.36,0,0,1-2.25,1.67,2.3,2.3,0,0,1-.94-.2,2.28,2.28,0,0,0,1.56.6,2.35,2.35,0,0,0,2.33-2c0-.1,0-.2,0-.3V13.86A2.35,2.35,0,0,0,91.1,11.71Z" transform="translate(11.02 29.87)"/><rect class="cls-48" x="90.98" y="89.48" width="20.74" height="18.52" rx="0.52"/><rect class="cls-49" x="90.02" y="87.44" width="22.65" height="3.02" rx="0.43"/><path class="cls-50" d="M100.22,59.61H79v.54a.43.43,0,0,0,.43.43h21.79a.43.43,0,0,0,.43-.43V58a.43.43,0,0,0-.43-.43h-.58v1.61A.43.43,0,0,1,100.22,59.61Z" transform="translate(11.02 29.87)"/><path class="cls-51" d="M80,63H97.35a.53.53,0,0,1,.52.52V78.13h2.31a.52.52,0,0,0,.52-.52v-17H80Z" transform="translate(11.02 29.87)"/><rect class="cls-52" x="95.73" y="93.76" width="10.52" height="2.2" rx="1.1"/><rect class="cls-52" x="92.26" y="93.76" width="2.25" height="2.2" rx="1.1"/><path class="cls-53" d="M90.15,67.55a64.17,64.17,0,0,1,64.18,64.18H26A64.17,64.17,0,0,1,90.15,67.55Z" transform="translate(11.02 29.87)"/><path class="cls-54" d="M87.41,122.85s-2.29,1.06-3.41.65-2.17-1.7-2.88-1-2.58,1.18-3.29.53a2.82,2.82,0,0,0-3.64-.29c-1.76,1-4.17-.12-5.64-.47s-2.93-2.41-3.4-2.94-1.12-.24-2.88-.12-2.59-1.53-4-1.64a25.35,25.35,0,0,0-4.35.06c-.88.11-2,2.37-2.82,3.46s-9.63,9.31-10.57,10.37a2,2,0,0,0-.22.27H91.17c-.41-1-.78-2.2-1-2.89-.47-1.29.47-3,.59-3.58s.7-.35,1.76-.29,2,3.4,2.47,4.69c.36,1,1.31,1.44,2.21,2.07h11.92a23.91,23.91,0,0,1-2.83-3.62c-.32-.47.68-1.24,1.47-1.62a3.53,3.53,0,0,1,2.2,0c.65.09,3,.53,3.47.62s.53,1.32,3.41,1.67,3.7.53,5,.71,2-.47,3.49-.41,1.88.94,2.44,1.7a1,1,0,0,1,0,1h15.82a17.35,17.35,0,0,1,.35-2.65c.35-1.12,2.41-.65,3.23-.36.39.14.71,1.48,1,3h6.16a64.2,64.2,0,0,0-41-59.87c-1.16,0-3.46.06-3.85.54-.53.64-1.47,2.11-2.65,2.58s-2.29-.12-3.23.65-2.17,2-2.17,2a14.47,14.47,0,0,1-.82,2.12,4,4,0,0,1-3.2,2c-.71,0-1.59-.74-2.12-.8s-2.41.15-3,.06-1.41-1.29-1.44-2-.86-.77-1.77-.77-1.46-1.68.09-1.68h2.06c.76,0,1-1.17,2-1.17h2.06c.85,0,2.5.08,2.5-2.24s-2-2.23-5.08-2.23-2.12-1.26-4.09-1.26H85.88c-.94,0-1.64-1.09-1.85-1.76a.18.18,0,0,0,0-.08,63.52,63.52,0,0,0-14.83,3.23,2.45,2.45,0,0,1-.3,2.22,18.16,18.16,0,0,1-2.35,2.09c-1,.82-.17,1.76-1.17,3.08l-2.76,3.67c-.36.47-.41.62-.36,1.53a6.14,6.14,0,0,1-.85,2.7c-.29.59.71,2.14,1.18,2.61s1.94-.26,2.43-.29,1.77,1.65,2.06,1.94a4.82,4.82,0,0,0,2.29.31,2.93,2.93,0,0,0,2.42-1,26,26,0,0,0,1.77-3.06c.22-.48-.33-3.48-.39-4.06s.18-1.35,1.15-2.65,1.38-1.73,1.64-2.14,1.21-.44,1.74-.12a1.61,1.61,0,0,1,.7,2.47c-.82,1.5-1.29,2.35-1.44,2.7a2,2,0,0,0,.56,2.41c1.06.76,1.79.09,2.76-.73A52.21,52.21,0,0,0,84,80.63c.38-.47,1.09-.32,1.68-.26s.35,1.14.32,1.85A2.5,2.5,0,0,0,87,84c.41.35,1.32-.41,2.2-.17s1.88,1.55,2.09,1.85.76,2.14-1.65,2.14H82.08c-2.47,0-2.67,6.2-6.9,6.2H66.84c-2.7,0-4.87,4.17-7.9,4.17s-3.41,1-4.4,2.26-2.26,3.11-2,4.37.85,2.59-.73,4.32-2.32,1.28-3.67,1.37-2.18,1.44-2.62,2.64-.15,3.55,1.62,3.55h3c1,0,3.44-.67,3.44-2.87v-3c0-.65-.19-1.5,1.25-3.26s2.35-1.68,4.29-1.68H62c1.32,0,2.73.78,4.09,2.85s1.27,1.64,2.73,1.64a34.4,34.4,0,0,1,4,0c.55.15,2.63.61,2.63,3.81,0,0,0,1.89,1.58,1.89h2.38c1.06,0,1-1.61,2.22-1.61h2.16c.68,0,1,2.91,1.92,3.74s1.58.71,2.82.71,2.33.57,2.33,1.67.13,2.16-1.14,2.16a9.28,9.28,0,0,0-2.25.1Zm-30-34.55s1.44,2.5,1.87,3,.77.53,1.51.53h2.13a1.07,1.07,0,0,1,1,1.12c0,.69-.41,1.33-2,1.33H57c-.86,0-1.72-2.15-3.83-2.15S50.57,90,52,90H55.1c.75,0,.73-1.25.73-1.6s1.25-.71,1.58-.07ZM117.8,108a1.94,1.94,0,1,1-1.94,1.94A1.93,1.93,0,0,1,117.8,108Zm-34.27-1.23a30.89,30.89,0,0,1,2.8-3,2.37,2.37,0,0,1,1.94-.49h1.36c.25,0,.45.74.94.74h1.27a3.38,3.38,0,0,1,2.35.54c.6.6,2.57,3,2.9,3.5a2.75,2.75,0,0,1,.53,1.92c0,1.12-.53,1.31-1.31,1.31H90.48c-1.21,0-1.34-.77-3.31-.77H84.79c-2.29,0-2.07-2.78-1.26-3.73Zm25.92-1.06c1,0,1.1,1.54,1.1,1.54V112c0,2.43,1.36,2.51,3.66,2.51s1.67,3.66.39,3.66h-5.15c-1.46,0-2-.79-2-2.64v-7C107.47,105.79,109.45,105.66,109.45,105.66Z" transform="translate(11.02 29.87)"/><path class="cls-53" d="M132.65,131.73h10.94a17.35,17.35,0,0,1,.35-2.65c.35-1.12,2.41-.65,3.23-.36.39.14.71,1.48,1,3h3a61.18,61.18,0,0,0-26.24-50.14,9.26,9.26,0,0,0-10.57,15.2A42.79,42.79,0,0,1,127.86,112,42.3,42.3,0,0,1,132.65,131.73Z" transform="translate(11.02 29.87)"/><path class="cls-55" d="M120,89.13a2.31,2.31,0,1,1,2.64-3.8c.4.27.88.62,1.43,1s1,.74,1.4,1.08a2.31,2.31,0,1,1-2.88,3.61l-1.27-1c-.35-.26-.79-.58-1.32-.94Zm7.73,6.63A2.31,2.31,0,1,1,131,92.58a53.66,53.66,0,0,1,13.4,24.81,2.31,2.31,0,1,1-4.5,1,49.47,49.47,0,0,0-12.24-22.67Z" transform="translate(11.02 29.87)"/><path class="cls-56" d="M37.14,131.73a64.74,64.74,0,0,1-1.29-12.85A63.87,63.87,0,0,1,44.6,86.52,63.94,63.94,0,0,0,26,131.73Z" transform="translate(11.02 29.87)"/><path class="cls-9" d="M36.44,45.66a.25.25,0,0,1,0,.5h-.35v.35a.25.25,0,0,1-.5,0v-.35h-.35a.25.25,0,0,1,0-.5h.35v-.35a.25.25,0,0,1,.5,0v.35Z" transform="translate(11.02 29.87)"/><path class="cls-9" d="M25.21,86.08a.25.25,0,0,1,0,.5h-.35v.35a.25.25,0,0,1-.5,0v-.35H24a.25.25,0,0,1,0-.5h.35v-.35a.25.25,0,0,1,.5,0v.35Z" transform="translate(11.02 29.87)"/><path class="cls-9" d="M102.11,33.74a.26.26,0,0,1,.25.26.25.25,0,0,1-.25.25h-.35v.35a.25.25,0,1,1-.5,0v-.35h-.35a.26.26,0,0,1-.26-.25.26.26,0,0,1,.26-.26h.35V33.4a.25.25,0,1,1,.5,0v.34Z" transform="translate(11.02 29.87)"/><path class="cls-9" d="M143.05,46.74a.25.25,0,0,1,0,.5h-.35v.35a.25.25,0,0,1-.5,0v-.35h-.35a.25.25,0,0,1,0-.5h.35v-.35a.25.25,0,1,1,.5,0v.35Z" transform="translate(11.02 29.87)"/><path class="cls-9" d="M156.4,61.34a.25.25,0,0,1,0,.5h-.35v.35a.25.25,0,0,1-.5,0v-.35h-.35a.25.25,0,0,1,0-.5h.35V61a.25.25,0,0,1,.5,0v.35Z" transform="translate(11.02 29.87)"/><path class="cls-9" d="M130.59,36.73a.26.26,0,0,1,.25.26.25.25,0,0,1-.25.25h-.35v.35a.25.25,0,0,1-.5,0v-.35h-.35a.25.25,0,0,1-.25-.25.26.26,0,0,1,.25-.26h.35v-.34a.25.25,0,1,1,.5,0v.34Z" transform="translate(11.02 29.87)"/><path class="cls-9" d="M170.11,88.71a.25.25,0,0,1,.25.25.26.26,0,0,1-.25.26h-.35v.34a.26.26,0,1,1-.51,0v-.34h-.35a.26.26,0,0,1-.25-.26.25.25,0,0,1,.25-.25h.35v-.35a.26.26,0,0,1,.51,0v.35Z" transform="translate(11.02 29.87)"/><path class="cls-9" d="M13.82,59.16a.26.26,0,0,1,0,.51h-.35V60a.25.25,0,1,1-.5,0v-.34h-.35a.26.26,0,1,1,0-.51H13v-.35a.25.25,0,0,1,.5,0v.35Z" transform="translate(11.02 29.87)"/><path class="cls-9" d="M101,97.25a.26.26,0,0,1,.25.26.25.25,0,0,1-.25.25h-.35v.35a.25.25,0,1,1-.5,0v-.35h-.35a.25.25,0,0,1-.25-.25.26.26,0,0,1,.25-.26h.35v-.34a.25.25,0,1,1,.5,0v.34Z" transform="translate(11.02 29.87)"/><path class="cls-9" d="M41.94,119.33a.25.25,0,1,1,0,.5h-.35v.35a.25.25,0,0,1-.5,0v-.35h-.35a.25.25,0,1,1,0-.5h.35V119a.25.25,0,1,1,.5,0v.35Z" transform="translate(11.02 29.87)"/><path class="cls-9" d="M72.93,76.15a.25.25,0,0,1,0,.5h-.35V77a.26.26,0,0,1-.51,0v-.35h-.35a.25.25,0,0,1,0-.5h.35V75.8a.26.26,0,0,1,.51,0v.35Z" transform="translate(11.02 29.87)"/><path class="cls-9" d="M58.32,11.46a.25.25,0,0,1,0,.5H58v.35a.25.25,0,1,1-.5,0V12h-.35a.25.25,0,0,1,0-.5h.35v-.35a.25.25,0,0,1,.5,0v.35Z" transform="translate(11.02 29.87)"/><path class="cls-9" d="M169.39,123.24a.26.26,0,0,1,.26.26.26.26,0,0,1-.26.25H169v.35a.25.25,0,0,1-.5,0v-.35h-.35a.25.25,0,0,1-.25-.25.26.26,0,0,1,.25-.26h.35v-.34a.25.25,0,1,1,.5,0v.34Z" transform="translate(11.02 29.87)"/><path class="cls-9" d="M166.11,8a.25.25,0,0,1,.25.25.26.26,0,0,1-.25.26h-.35v.34a.25.25,0,1,1-.5,0V8.47h-.35a.26.26,0,0,1-.25-.26.25.25,0,0,1,.25-.25h.35V7.61a.25.25,0,0,1,.5,0V8Z" transform="translate(11.02 29.87)"/><path class="cls-9" d="M160.53-29.27a.25.25,0,0,1,.25.25.26.26,0,0,1-.25.26h-.35v.34a.26.26,0,0,1-.25.26.26.26,0,0,1-.25-.26v-.34h-.35a.26.26,0,0,1-.25-.26.25.25,0,0,1,.25-.25h.35v-.35a.25.25,0,0,1,.25-.25.25.25,0,0,1,.25.25v.35Z" transform="translate(11.02 29.87)"/><path class="cls-9" d="M121.07,6.71a.26.26,0,0,1,.26.26.26.26,0,0,1-.26.25h-.34v.35a.26.26,0,0,1-.26.25.25.25,0,0,1-.25-.25V7.22h-.35a.25.25,0,0,1-.25-.25.26.26,0,0,1,.25-.26h.35V6.37a.26.26,0,0,1,.25-.26.26.26,0,0,1,.26.26v.34Z" transform="translate(11.02 29.87)"/><path class="cls-9" d="M45.18-28.56a.26.26,0,0,1,.26.26.26.26,0,0,1-.26.25h-.34v.35a.26.26,0,0,1-.26.25.25.25,0,0,1-.25-.25V-28H44a.25.25,0,0,1-.25-.25.26.26,0,0,1,.25-.26h.35v-.34a.26.26,0,0,1,.25-.26.26.26,0,0,1,.26.26v.34Z" transform="translate(11.02 29.87)"/><path class="cls-9" d="M13.45,28.4a.25.25,0,0,1,0,.5H13.1v.35a.25.25,0,0,1-.5,0V28.9h-.35a.25.25,0,0,1,0-.5h.35v-.35a.25.25,0,1,1,.5,0v.35Z" transform="translate(11.02 29.87)"/><path class="cls-9" d="M39.78,15.66a.25.25,0,1,1,0,.5h-.34v.35a.26.26,0,0,1-.26.25.25.25,0,0,1-.25-.25v-.35h-.35a.25.25,0,0,1,0-.5h.35v-.35a.25.25,0,0,1,.25-.25.26.26,0,0,1,.26.25v.35Z" transform="translate(11.02 29.87)"/><path class="cls-9" d="M137,12.38a.26.26,0,0,1,.26.26.26.26,0,0,1-.26.25h-.34v.35a.26.26,0,0,1-.26.25.25.25,0,0,1-.25-.25v-.35h-.35a.25.25,0,0,1-.25-.25.26.26,0,0,1,.25-.26h.35V12a.26.26,0,0,1,.25-.26.26.26,0,0,1,.26.26v.34Z" transform="translate(11.02 29.87)"/><path class="cls-22" d="M137.16,33.3a.06.06,0,0,1,0-.06s.06,0,.06,0l.38,1.84a.06.06,0,0,1,0,.06s-.06,0-.06,0l-.38-1.84Zm3.83,0s0,0,.06,0,0,0,0,.06l-.37,1.84a.08.08,0,0,1-.06,0s-.05,0,0-.06l.38-1.84Zm-1.15,0a.05.05,0,0,1,0,0,.06.06,0,0,1,.05.06l-.22,1.83a.06.06,0,0,1-.06,0,.07.07,0,0,1,0-.06l.22-1.83Zm-1.53,0s0,0,0-.06a.06.06,0,0,1,.06,0l.22,1.83a.06.06,0,0,1,0,.06,0,0,0,0,1-.05,0Z" transform="translate(11.02 29.87)"/><path class="cls-57" d="M141,33v-.28a3.43,3.43,0,0,1,.75-1.88c8.07-7.74,9.6-21.37-2.64-21.32s-10.71,13.58-2.63,21.32a3.4,3.4,0,0,1,.74,1.88V33Z" transform="translate(11.02 29.87)"/><rect class="cls-26" x="148.49" y="64.85" width="3.31" height="2.91" rx="0.77"/><rect class="cls-58" x="148.27" y="64.82" width="3.74" height="0.77" rx="0.22"/><path class="cls-26" d="M148.22,64.82h3.85a.14.14,0,0,1,.14.14V65a.13.13,0,0,1-.13.13h-3.85a.13.13,0,0,1-.13-.13V65A.14.14,0,0,1,148.22,64.82Z"/><path class="cls-9" d="M140.52,33v-.28a4.18,4.18,0,0,1,.55-1.88c6-7.74,7.1-21.37-1.95-21.32s-7.92,13.58-1.94,21.32a4.18,4.18,0,0,1,.55,1.88V33Z" transform="translate(11.02 29.87)"/><path class="cls-57" d="M139.9,33v-.28a6.81,6.81,0,0,1,.3-1.88c3.31-7.74,3.94-21.37-1.08-21.32S134.73,23.05,138,30.79a6.83,6.83,0,0,1,.31,1.88V33Z" transform="translate(11.02 29.87)"/><path class="cls-9" d="M139.38,33v-.28c0-.38,0-1.44.1-1.88,1.09-7.74,1.3-21.37-.36-21.32s-1.44,13.58-.35,21.32c.06.44.1,1.5.1,1.88V33Z" transform="translate(11.02 29.87)"/><rect class="cls-26" x="147.98" y="62.44" width="4.32" height="0.93" rx="0.26"/><path class="cls-59" d="M140.12,35.72v.73a.77.77,0,0,1-.77.77h-1.88a.78.78,0,0,0,.76.68H140a.77.77,0,0,0,.77-.76V35.72Z" transform="translate(11.02 29.87)"/><path class="cls-60" d="M140.9,33a.26.26,0,0,1-.25.19H137v.09a.27.27,0,0,0,.27.27H141a.26.26,0,0,0,.26-.27v-.4a.25.25,0,0,0-.26-.26h-.1v.3A.19.19,0,0,1,140.9,33Z" transform="translate(11.02 29.87)"/><path class="cls-9" d="M164.77,23.16a3.88,3.88,0,0,1,1.33.24,1,1,0,0,1,.76-.33,1,1,0,0,1,.39.07A1.71,1.71,0,0,1,170,21.92a1,1,0,0,1,.82-.42l.16,0a2.29,2.29,0,0,1-.17-.87,2.2,2.2,0,0,1,2.2-2.2,2.05,2.05,0,0,1,.65.1,1,1,0,0,1,.9-.58h0c0-.08,0-.16,0-.24a4,4,0,0,1,7.91,0v.1a2.35,2.35,0,0,1,.6-.08,2.39,2.39,0,0,1,1.13.28,3.17,3.17,0,0,1,5.73,1.87,3.21,3.21,0,0,1-.16,1h.1a1.56,1.56,0,0,1,1.56,1.56,1.45,1.45,0,0,1,0,.3h0a.9.9,0,0,1,.9.87,1.87,1.87,0,0,1,.42,0,2.17,2.17,0,0,1,1.47.55c1,1-.1,1.21-1.16,1.21H163.6c-1.11,0-2.7.18-1.6-1A3.83,3.83,0,0,1,164.77,23.16Z" transform="translate(11.02 29.87)"/><path class="cls-9" d="M-7.76,23.7A3.93,3.93,0,0,1-6.38,24a1.1,1.1,0,0,1,.79-.35,1.15,1.15,0,0,1,.41.08,1.77,1.77,0,0,1,1.76-1.63,1.76,1.76,0,0,1,1.08.37A1,1,0,0,1-1.49,22l.17,0a2.26,2.26,0,0,1-.18-.9A2.29,2.29,0,0,1,.78,18.81a2.54,2.54,0,0,1,.68.1,1,1,0,0,1,.94-.59h0a2.18,2.18,0,0,1,0-.25,4.11,4.11,0,1,1,8.21,0v.09a2.56,2.56,0,0,1,.62-.07,2.45,2.45,0,0,1,1.18.29,3.29,3.29,0,0,1,5.94,1.94,3.4,3.4,0,0,1-.16,1h.1a1.62,1.62,0,0,1,1.59,1.93h0a.94.94,0,0,1,.94.9,2,2,0,0,1,.43,0,2.2,2.2,0,0,1,1.52.57c1.05,1-.09,1.26-1.2,1.26H-9c-1.16,0-2.81.19-1.66-1A4,4,0,0,1-7.76,23.7Z" transform="translate(11.02 29.87)"/><path class="cls-9" d="M68.87,84.53a4.21,4.21,0,0,0-1.47.26,1.13,1.13,0,0,0-.84-.37,1,1,0,0,0-.43.09,1.89,1.89,0,0,0-1.88-1.74,1.86,1.86,0,0,0-1.15.39,1.11,1.11,0,0,0-.9-.47l-.18,0a2.53,2.53,0,0,0,.19-1,2.43,2.43,0,0,0-2.43-2.43,2.46,2.46,0,0,0-.72.11,1.1,1.1,0,0,0-1-.64h0a2.44,2.44,0,0,0,0-.27,4.37,4.37,0,1,0-8.74,0v.1a2.84,2.84,0,0,0-.66-.08,2.63,2.63,0,0,0-1.25.31A3.49,3.49,0,0,0,41.24,82h-.11a1.72,1.72,0,0,0-1.72,1.72,1.69,1.69,0,0,0,0,.33h0a1,1,0,0,0-1,1,2.5,2.5,0,0,0-2.08.57c-1.12,1.06.1,1.33,1.28,1.33H70.16c1.23,0,3,.21,1.77-1.08A4.21,4.21,0,0,0,68.87,84.53Z" transform="translate(11.02 29.87)"/><path class="cls-9" d="M123.92,110.53a4.44,4.44,0,0,1,1.51.27,1.19,1.19,0,0,1,.87-.38,1.13,1.13,0,0,1,.45.09,1.93,1.93,0,0,1,1.93-1.79,1.85,1.85,0,0,1,1.18.4,1.15,1.15,0,0,1,.93-.48l.19,0a2.54,2.54,0,0,1-.2-1,2.51,2.51,0,0,1,2.51-2.51,2.55,2.55,0,0,1,.74.11,1.14,1.14,0,0,1,1-.65h0v-.27a4.51,4.51,0,1,1,9,0v.1a3,3,0,0,1,.68-.08,2.82,2.82,0,0,1,1.29.31,3.61,3.61,0,0,1,6.52,2.14,3.75,3.75,0,0,1-.18,1.12h.11a1.78,1.78,0,0,1,1.78,1.78,1.86,1.86,0,0,1,0,.34h0a1,1,0,0,1,1,1,2.61,2.61,0,0,1,.48-.05,2.41,2.41,0,0,1,1.67.64c1.16,1.09-.1,1.37-1.32,1.37H122.58c-1.26,0-3.07.21-1.81-1.12A4.34,4.34,0,0,1,123.92,110.53Z" transform="translate(11.02 29.87)"/></g></g></g></svg>