<svg xmlns="http://www.w3.org/2000/svg" xmlns:xlink="http://www.w3.org/1999/xlink" viewBox="0 0 1164.05 230.77"><defs><style>.cls-1,.cls-4{fill:none;}.cls-2{clip-path:url(#clip-path);}.cls-3{fill:#53b848;}.cls-4{stroke:#53b848;stroke-miterlimit:10;}.cls-5{fill:url(#linear-gradient);}</style><clipPath id="clip-path" transform="translate(45.8 -12.98)"><rect class="cls-1" width="1024" height="190.89"/></clipPath><linearGradient id="linear-gradient" x1="471.19" y1="145.96" x2="1118.25" y2="145.96" gradientUnits="userSpaceOnUse"><stop offset="0" stop-color="#226332"/><stop offset="0.99" stop-color="#3e9d46"/></linearGradient></defs><g id="Layer_2" data-name="Layer 2"><g id="OBJECTS"><g class="cls-2"><path class="cls-3" d="M73.7,45.87c13.49,13.51,22.15,31.95,38.05,42.52,30.7,20.4,73.3,3.14,108.09,15.3,21.58,7.55,38.6,27.17,42.58,49.68s-5.46,47-23.81,60.65c-16.07,12-36.8,15.22-56.63,18.11-36.59,5.35-73.72,10.7-110.41,6.07s-73.52-20.57-95.42-50.36c-27.91-38-27.94-97.56-7.21-139.09C-11.46,9.5,46.94,19.07,73.7,45.87Z" transform="translate(45.8 -12.98)"/><path class="cls-4" d="M-17.14,24C19,4,68.69,13.34,95.1,45.06,104,55.79,110.56,68.7,121.39,77.51c20.53,16.67,50.07,14.14,76.31,10.79s55.82-5.78,76.24,11c13.77,11.34,20.35,29.61,21.38,47.43s-2.83,35.51-6.67,52.94" transform="translate(45.8 -12.98)"/><path class="cls-3" d="M840.76,72.63C812.27,65,784.33,52,754.87,53.43c-56,2.8-103.32,57.33-158.64,48.26-21.65-3.56-41.48-16.85-63.42-16.44-26.53.48-49.14,21.71-59.33,46.21-6.4,15.38-8.8,33.39-1.79,48.5,11.73,25.3,43.56,32.8,71.21,36.41,152.07,19.89,306.69,14.86,458.75-5,27.33-3.58,56.77-8.7,75.78-28.66,25.26-26.51,22.57-68.54,14.87-104.34-2.43-11.32-5.38-22.94-12.47-32.09-15.22-19.62-32.83-13.54-50.07-2.92a248.11,248.11,0,0,1-60.45,27.21C927.69,82.73,882.71,83.85,840.76,72.63Z" transform="translate(45.8 -12.98)"/><path class="cls-5" d="M854.48,87.37c-29.25-7.63-57.94-20.68-88.18-19.2C708.81,71,660.23,125.5,603.43,116.42c-22.23-3.55-42.59-16.84-65.12-16.44-27.24.49-50.45,21.71-60.91,46.21-6.57,15.38-9,33.4-1.85,48.51,12.05,25.3,44.73,32.79,73.12,36.41,156.13,19.89,314.88,14.86,471-5,28.06-3.57,58.27-8.7,77.79-28.65,25.94-26.51,23.18-68.54,15.28-104.34-2.5-11.32-5.52-23-12.81-32.1-15.62-19.62-33.71-13.53-51.41-2.91a258,258,0,0,1-62.06,27.2C943.74,97.47,897.56,98.59,854.48,87.37Z" transform="translate(45.8 -12.98)"/><path class="cls-4" d="M1069.12,25.23c-28.84-7.8-59.32,2.22-86.73,14.09s-55,26-84.88,26.74c-38.17,1-73.31-20-110.91-26.66A151.15,151.15,0,0,0,686.33,56.82C665.46,68.74,646.65,86,623,90.24c-31,5.56-61.51-12.81-93-13.33-27.75-.45-55.3,14.1-70.58,37.27S441.6,168.4,453,193.73" transform="translate(45.8 -12.98)"/></g></g></g></svg>